<?xml version="1.0" standalone="no"?>
<!DOCTYPE svg PUBLIC "-//W3C//DTD SVG 20010904//EN"
 "http://www.w3.org/TR/2001/REC-SVG-20010904/DTD/svg10.dtd">
<svg version="1.0" xmlns="http://www.w3.org/2000/svg"
 width="1080.000000pt" height="1080.000000pt" viewBox="0 0 1080.000000 1080.000000"
 preserveAspectRatio="xMidYMid meet">

<g transform="translate(0.000000,1080.000000) scale(0.100000,-0.100000)"
fill="#000000" stroke="none">
<path d="M4214 10610 c-94 -19 -172 -77 -214 -161 -11 -21 -28 -44 -38 -51
-27 -20 -56 -73 -95 -174 -41 -105 -72 -171 -96 -198 -38 -43 -188 -96 -276
-96 -27 -1 -61 -7 -75 -15 -14 -8 -36 -15 -50 -15 -44 -1 -154 -40 -180 -65
-14 -13 -61 -37 -105 -55 -147 -58 -168 -71 -192 -120 -24 -50 -41 -115 -53
-205 -5 -38 -20 -82 -41 -120 -31 -55 -40 -63 -109 -97 -41 -20 -82 -37 -91
-37 -48 -2 -287 -86 -384 -135 -112 -57 -139 -104 -185 -332 -12 -57 -17 -89
-38 -239 -6 -38 -20 -98 -32 -131 -23 -68 -47 -85 -145 -104 -266 -51 -372
-85 -453 -147 -51 -39 -64 -81 -70 -224 -4 -110 -2 -136 17 -197 11 -39 21
-82 21 -96 0 -14 14 -47 30 -73 26 -41 30 -57 32 -127 2 -71 2 -74 5 -23 3 50
6 57 19 47 16 -15 19 -101 4 -130 -6 -11 -15 -42 -20 -70 -14 -74 -79 -204
-138 -275 -17 -22 -32 -47 -32 -55 0 -9 -11 -31 -25 -50 -24 -33 -25 -40 -25
-181 0 -81 5 -160 11 -175 9 -25 70 -93 210 -233 54 -54 59 -68 70 -181 4 -47
11 -110 14 -141 9 -74 -3 -97 -116 -206 -78 -75 -98 -102 -140 -185 l-49 -98
0 -191 0 -192 52 -49 c29 -27 67 -56 83 -65 17 -9 33 -21 37 -27 4 -6 8 -55 8
-110 0 -98 0 -99 -34 -136 -30 -33 -76 -131 -76 -163 0 -7 -9 -25 -20 -42 -16
-24 -20 -47 -20 -121 l0 -92 42 -36 c132 -113 242 -211 327 -292 98 -93 165
-135 271 -169 30 -10 81 -28 113 -42 52 -21 97 -30 262 -52 54 -7 139 -54 227
-125 29 -23 70 -53 92 -65 21 -13 47 -38 57 -55 25 -42 25 -135 -1 -212 -38
-114 -15 -241 56 -303 32 -29 40 -31 111 -31 56 0 92 6 137 23 34 13 81 31
106 41 25 9 63 33 85 53 43 39 155 95 226 114 44 11 45 10 164 -56 151 -85
155 -88 155 -140 0 -22 5 -46 11 -52 8 -8 1 -16 -27 -30 -88 -41 -141 -86
-184 -157 -24 -39 -72 -105 -107 -148 -35 -42 -63 -79 -63 -82 0 -3 -11 -29
-24 -58 -35 -76 -53 -141 -66 -233 -20 -141 -27 -153 -210 -335 -91 -91 -192
-199 -225 -240 -32 -41 -62 -77 -65 -80 -30 -22 -278 -408 -317 -490 -11 -25
-43 -92 -71 -150 -27 -58 -61 -139 -76 -180 -15 -41 -31 -84 -36 -95 -21 -50
-53 -143 -60 -175 -4 -19 -21 -87 -38 -150 -16 -63 -33 -135 -37 -160 -3 -25
-9 -53 -11 -62 -4 -14 1 -18 20 -18 21 0 26 6 31 38 12 72 97 406 114 447 10
22 27 67 66 170 28 75 66 160 130 290 46 93 226 385 238 385 4 0 17 -20 29
-45 l22 -46 -34 -27 c-65 -50 -135 -134 -177 -214 -43 -79 -43 -80 -43 -186
l0 -106 50 -48 c42 -40 49 -53 44 -73 -5 -21 -1 -26 22 -35 16 -6 53 -23 81
-38 l53 -27 1 -120 0 -120 52 -100 52 -100 50 0 c44 0 50 3 53 22 2 15 -10 39
-36 70 -46 56 -88 170 -98 269 l-7 65 38 -15 c56 -24 63 -33 70 -84 14 -107
67 -244 128 -329 l30 -43 164 0 163 0 0 30 c0 20 5 30 15 30 8 0 17 12 21 28
3 15 22 62 43 104 l36 77 67 21 c37 12 83 24 102 27 19 3 43 14 52 24 15 17
33 19 161 19 l143 0 0 -75 c0 -75 0 -75 27 -75 15 0 37 -10 49 -21 41 -39 50
-22 57 108 5 113 7 119 32 138 15 11 39 32 53 46 15 14 51 37 79 52 125 62
211 137 228 197 13 46 51 120 92 179 2 3 13 -5 26 -17 32 -30 78 -28 116 3 16
14 50 64 76 110 25 46 50 87 56 91 6 4 28 1 50 -6 33 -11 42 -11 64 4 20 13
25 24 25 59 0 23 -5 49 -10 57 -7 11 -3 18 13 27 30 17 47 16 47 -2 0 -49 101
-74 140 -35 19 19 20 19 32 -3 6 -12 11 -35 9 -52 -3 -41 18 -65 65 -75 21 -5
59 -14 83 -21 46 -13 64 -3 58 31 -3 18 -75 60 -104 60 -47 0 -38 23 25 61 18
10 37 31 43 47 20 53 -10 142 -48 142 -22 0 -42 61 -45 134 -2 36 -7 66 -11
66 -4 0 -34 -11 -67 -25 -62 -26 -109 -31 -139 -16 -15 8 -17 20 -13 64 4 50
2 56 -24 76 -27 21 -37 22 -146 19 -111 -3 -119 -4 -144 -29 -23 -24 -26 -35
-31 -128 -6 -110 -7 -112 -70 -126 -32 -6 -33 -6 -33 28 0 19 7 54 15 77 20
57 19 59 -13 71 -37 13 -59 63 -68 152 -7 68 -7 69 17 65 17 -2 30 -15 43 -43
21 -45 32 -55 62 -55 34 0 54 31 54 83 0 46 1 47 30 47 20 0 43 11 67 34 23
19 53 35 75 39 21 3 60 17 89 31 28 14 62 26 76 26 25 0 53 -20 53 -38 0 -12
-83 -52 -108 -52 -42 0 -70 -73 -38 -99 8 -7 43 -20 78 -30 34 -11 80 -26 100
-35 42 -18 129 -16 152 3 9 8 16 29 16 51 0 41 11 51 53 43 61 -12 105 23 93
73 -5 17 -20 31 -49 43 -23 10 -63 39 -90 63 -26 25 -73 59 -105 76 -55 29
-64 31 -222 37 -189 8 -185 10 -225 -84 -11 -26 -35 -65 -52 -86 l-33 -40 0
61 c0 59 0 60 33 69 45 14 65 56 42 91 -16 25 -19 25 -133 24 l-117 -2 2 29
c3 45 61 87 154 113 44 11 108 32 142 45 58 22 60 24 34 30 -29 8 -66 4 -137
-15 -137 -37 -153 -44 -195 -84 -39 -38 -43 -47 -54 -118 -11 -70 -10 -87 12
-200 14 -68 28 -155 32 -195 l6 -71 -28 -6 c-47 -10 -214 -26 -278 -26 -33 0
-82 -8 -110 -17 -38 -13 -106 -18 -295 -23 -157 -4 -253 -10 -266 -18 -12 -6
-63 -17 -114 -24 l-92 -12 -19 25 c-10 13 -23 35 -30 49 -25 54 -44 87 -75
127 -17 23 -37 64 -44 91 -10 43 -9 55 5 82 9 18 14 42 11 53 -9 36 55 283 97
377 23 49 43 78 128 185 30 38 61 85 69 103 18 45 160 142 209 142 17 0 19 -4
10 -32 -25 -87 -2 -128 72 -128 25 0 99 -7 164 -15 96 -13 223 -16 640 -15
286 1 610 6 720 12 110 5 227 9 260 8 102 -3 374 -4 495 -2 63 1 144 2 180 1
36 0 103 5 150 12 83 12 175 15 255 9 65 -5 217 15 253 34 35 18 45 35 62 104
12 46 20 51 41 25 17 -20 146 -123 154 -123 8 0 114 -77 149 -109 15 -14 52
-63 81 -107 29 -45 58 -84 63 -88 17 -10 64 -116 74 -166 20 -99 30 -224 19
-247 -8 -17 -8 -37 0 -69 30 -118 -24 -256 -152 -387 -66 -67 -78 -75 -89 -62
-7 8 -21 15 -31 15 -10 0 -20 4 -24 9 -3 6 -27 13 -53 16 -26 4 -89 15 -139
26 -51 10 -106 19 -122 19 -44 0 -152 30 -181 50 -46 32 -143 57 -270 70 -47
4 -105 13 -130 19 -25 6 -81 17 -126 25 -104 19 -138 32 -128 48 5 7 11 49 15
93 4 44 13 105 19 135 7 30 10 96 8 146 -3 78 -7 95 -28 121 -37 47 -117 103
-169 120 -25 8 -65 24 -88 34 -24 10 -47 19 -53 19 -5 0 -45 12 -87 27 -98 34
-190 37 -248 9 -28 -14 -74 -22 -155 -27 -131 -9 -317 -33 -327 -43 -3 -3 90
-6 208 -6 205 0 217 2 274 25 95 39 111 40 203 6 46 -17 90 -31 98 -31 8 0 36
-9 61 -21 26 -12 67 -27 92 -35 50 -15 88 -40 138 -93 33 -35 33 -35 33 -137
0 -57 -5 -115 -11 -131 -6 -15 -13 -65 -16 -110 -5 -63 -10 -87 -25 -99 -10
-10 -21 -14 -24 -11 -4 3 -15 2 -25 -4 -17 -8 -19 -22 -19 -112 0 -82 4 -108
19 -133 17 -29 18 -37 4 -165 -9 -85 -12 -176 -9 -249 6 -113 7 -117 55 -212
27 -53 77 -138 111 -190 53 -82 71 -101 147 -153 96 -66 167 -103 200 -104 27
-1 39 -19 24 -34 -6 -6 -11 -28 -11 -49 0 -40 -17 -62 -82 -104 -20 -13 -42
-32 -48 -43 -10 -20 -105 -73 -152 -84 -17 -5 -30 -17 -37 -37 -22 -65 -119
-60 1225 -60 l1224 0 0 38 c0 20 -14 91 -31 157 -17 66 -35 136 -39 155 -50
205 -168 488 -318 760 -116 210 -367 527 -585 738 l-75 73 -5 122 c-2 67 -9
143 -15 168 -15 64 -74 187 -110 228 -16 18 -39 53 -51 76 -27 54 -79 101
-216 197 -60 42 -126 91 -146 110 -20 18 -57 48 -83 66 l-47 33 4 87 c2 48 14
118 25 157 26 86 63 230 91 350 18 79 20 126 21 400 1 191 -3 323 -9 345 -6
19 -11 60 -11 92 0 53 -9 75 -145 346 -137 275 -207 389 -244 399 -9 2 -34 26
-56 52 -22 26 -70 71 -106 99 l-66 51 -6 78 c-6 95 7 122 91 186 31 23 62 54
69 67 6 14 26 56 43 93 17 37 51 87 74 110 60 59 88 101 121 182 15 39 32 74
37 80 4 5 8 21 8 36 0 14 11 47 25 72 l26 45 39 -22 c21 -12 49 -34 60 -49 12
-15 31 -27 42 -27 24 0 148 -117 148 -139 0 -9 8 -27 17 -41 25 -36 36 -103
36 -220 -1 -128 -9 -177 -34 -190 -29 -16 -41 -48 -50 -130 -4 -41 -17 -102
-30 -135 -17 -46 -23 -87 -26 -178 -4 -108 -3 -119 17 -145 12 -15 28 -41 35
-59 14 -33 74 -77 119 -89 15 -3 29 -10 32 -15 3 -5 13 -9 23 -9 18 0 101
-115 101 -139 0 -6 9 -28 20 -48 11 -21 20 -47 20 -58 1 -11 7 -31 15 -45 11
-19 14 -69 15 -216 0 -213 11 -272 57 -316 36 -35 74 -49 96 -37 27 16 20 44
-15 60 -61 27 -78 93 -78 310 0 157 -2 181 -24 249 -43 133 -47 141 -114 242
-27 41 -66 67 -127 86 -52 16 -63 26 -102 90 -30 48 -33 61 -33 128 0 58 7 95
30 161 17 46 33 117 37 156 5 62 10 76 35 99 16 15 28 36 28 51 0 13 7 41 15
60 20 48 20 186 0 234 -8 19 -15 44 -15 55 0 10 -12 47 -26 81 -28 68 -138
191 -180 201 -22 6 -56 33 -120 97 l-31 31 18 47 c10 26 36 88 58 136 23 48
41 101 41 116 0 18 5 29 14 29 30 0 150 64 194 104 13 11 29 34 37 51 99 226
155 501 136 670 -15 139 -52 233 -111 283 -27 22 -170 92 -189 92 -27 0 -81
54 -81 81 0 24 0 26 -55 199 -90 283 -245 530 -485 770 -132 133 -286 256
-395 316 -206 113 -372 179 -538 213 -202 42 -384 54 -582 41 -225 -16 -306
-31 -509 -94 l-48 -15 23 25 c24 25 28 47 45 221 5 51 11 65 30 78 13 8 24 21
24 29 0 7 19 21 43 30 33 12 79 16 208 16 91 0 169 -4 175 -9 5 -5 32 -21 59
-36 28 -15 67 -39 89 -53 28 -20 51 -26 90 -27 48 0 51 2 51 25 0 21 -6 26
-36 30 -20 4 -49 15 -65 26 -16 12 -64 39 -107 62 l-79 42 -181 0 c-221 -1
-297 -16 -297 -60 0 -11 -10 -25 -22 -31 -33 -17 -38 -28 -38 -80 0 -26 -7
-66 -15 -89 -8 -23 -15 -53 -15 -67 0 -13 -7 -35 -16 -48 -25 -38 -75 -32
-129 15 -11 9 -45 26 -76 37 -52 20 -67 21 -230 13 -251 -13 -304 -30 -391
-125 -76 -83 -82 -96 -88 -210 l-5 -100 -49 -33 c-27 -18 -74 -39 -105 -47
-227 -60 -286 -89 -322 -157 -6 -11 -29 -40 -50 -63 -60 -65 -72 -103 -78
-245 -6 -117 -8 -128 -36 -173 -40 -65 -74 -77 -232 -77 -139 0 -151 -3 -350
-101 -150 -73 -179 -100 -188 -171 -4 -29 -10 -255 -14 -503 l-6 -450 -62 -25
c-38 -16 -82 -44 -115 -76 -29 -27 -79 -67 -111 -87 -32 -21 -66 -51 -75 -68
-9 -17 -29 -50 -44 -72 -35 -56 -63 -233 -55 -353 4 -72 11 -97 46 -171 23
-47 54 -102 71 -122 34 -44 51 -86 95 -242 73 -260 72 -305 -10 -465 -30 -59
-60 -113 -67 -121 -6 -7 -35 -62 -65 -121 -30 -59 -61 -114 -68 -122 -40 -47
-52 -116 -61 -337 -5 -118 -3 -143 20 -240 32 -138 38 -153 76 -197 25 -28 48
-41 104 -57 39 -12 81 -30 92 -41 16 -14 33 -18 65 -16 41 3 44 5 44 33 0 26
-4 31 -35 37 -56 12 -195 62 -214 77 -30 25 -45 65 -72 191 -21 99 -25 139
-21 213 9 166 24 259 47 286 11 15 45 74 74 133 30 59 63 120 74 135 10 16 45
79 76 142 55 112 56 116 56 200 0 68 -9 118 -41 241 -22 85 -46 167 -54 182
-7 15 -16 41 -20 57 -3 16 -22 47 -41 69 -19 23 -50 75 -69 117 -34 73 -35 81
-34 188 1 140 17 230 50 282 14 22 28 47 31 56 4 9 32 33 65 54 32 22 83 62
113 91 40 38 68 56 103 64 31 8 56 23 72 42 l25 30 0 438 c0 369 2 442 15 466
8 16 15 43 15 60 0 17 8 38 18 47 9 8 80 46 156 84 l139 68 146 6 c80 3 159
11 174 17 16 7 39 12 53 12 18 0 28 9 41 38 10 20 26 50 37 67 16 23 22 53 27
150 8 153 17 185 71 245 23 27 54 63 67 80 29 39 94 68 211 95 115 27 200 69
248 123 20 23 22 35 22 129 l0 103 57 63 c60 65 83 78 196 103 49 12 107 15
210 12 l143 -3 89 -53 c56 -34 96 -51 108 -48 32 8 6 -8 -63 -39 -271 -123
-547 -349 -764 -625 -36 -46 -149 -222 -176 -273 -13 -26 -17 -28 -50 -20 -70
16 -124 10 -167 -19 -23 -15 -54 -30 -70 -34 -91 -22 -179 -112 -209 -212 -34
-115 -38 -176 -37 -478 1 -251 3 -306 16 -330 9 -16 22 -43 30 -59 9 -19 30
-38 55 -49 l42 -19 -23 -36 c-31 -50 -32 -170 -1 -221 12 -19 31 -63 44 -97
19 -54 22 -77 19 -180 -4 -115 -5 -121 -39 -177 -19 -32 -46 -66 -59 -75 -13
-9 -49 -39 -80 -67 -31 -28 -76 -62 -101 -76 -62 -35 -73 -51 -109 -143 -45
-117 -42 -248 10 -360 10 -22 27 -71 38 -110 11 -38 36 -92 56 -119 32 -46 35
-55 35 -120 0 -39 -4 -86 -10 -105 -8 -28 -6 -41 11 -71 l21 -38 -41 -52 c-26
-32 -41 -62 -41 -80 0 -15 -10 -49 -22 -76 -17 -38 -23 -74 -26 -164 -4 -111
-3 -119 27 -194 18 -45 53 -106 81 -141 28 -35 50 -71 50 -82 0 -26 -19 -43
-49 -43 -15 0 -39 -9 -56 -20 -111 -73 -172 -109 -186 -110 -9 0 -28 -9 -42
-20 -14 -11 -32 -20 -40 -20 -28 0 -47 -12 -47 -30 0 -11 -4 -22 -10 -25 -15
-9 -12 -70 7 -127 13 -41 22 -53 49 -64 18 -8 46 -14 61 -14 15 0 50 -6 78
-13 44 -12 50 -17 58 -48 5 -18 16 -42 25 -52 22 -24 29 -155 12 -198 -33 -79
-2 -127 118 -184 77 -37 102 -39 102 -7 0 25 -24 45 -87 72 -70 30 -90 52 -75
86 7 13 12 69 12 122 -1 82 -4 105 -25 147 -14 28 -25 55 -25 61 0 29 -72 60
-189 81 -38 7 -45 13 -59 47 -9 23 -11 40 -5 45 5 3 12 14 16 24 3 9 13 17 20
17 8 0 22 9 32 20 10 11 27 20 37 20 11 0 43 16 72 35 29 19 57 35 61 35 4 0
23 14 42 30 25 22 44 30 73 30 51 0 80 38 80 106 0 41 -6 54 -46 103 -26 31
-60 84 -75 118 -26 57 -29 73 -29 172 0 87 4 121 20 161 11 28 20 62 20 76 0
16 15 43 39 71 51 57 59 93 32 138 -16 28 -18 41 -11 61 6 14 10 65 10 113 0
87 0 87 -38 129 -28 30 -45 64 -62 120 -13 42 -31 93 -40 112 -56 119 -50 237
20 380 4 8 29 28 56 43 27 16 74 52 105 81 31 28 68 59 83 69 35 24 93 117
107 171 6 24 9 99 7 172 -3 127 -4 131 -45 226 -24 54 -43 108 -43 121 0 13
12 46 26 75 21 42 31 52 51 52 36 0 63 -18 63 -41 0 -29 17 -58 66 -111 27
-28 44 -57 44 -71 0 -13 14 -50 31 -82 l31 -58 0 -258 c0 -200 3 -264 14 -285
9 -17 14 -59 14 -117 0 -115 -18 -159 -74 -182 -147 -60 -259 -190 -260 -303
-1 -48 2 -56 31 -80 17 -15 53 -45 79 -67 26 -22 68 -51 93 -65 32 -18 61 -47
98 -100 l52 -75 1 -188 c0 -182 -1 -189 -26 -240 -14 -28 -30 -59 -35 -67 -5
-8 -32 -62 -61 -119 l-52 -105 -4 -128 c-3 -79 0 -146 7 -175 12 -44 123 -277
169 -353 61 -99 72 -129 72 -190 0 -65 15 -85 46 -59 13 10 15 28 12 89 -4 70
-8 81 -56 162 -29 48 -80 145 -115 215 l-62 127 0 155 0 156 45 87 c25 48 62
120 82 160 l37 73 0 209 1 210 -42 65 c-56 88 -94 128 -148 156 -25 12 -54 33
-65 45 -11 13 -37 33 -58 46 -30 20 -37 30 -37 57 1 83 77 170 206 233 53 27
79 46 98 76 24 37 26 48 26 151 l1 112 25 -30 c14 -16 56 -95 95 -175 39 -80
79 -161 90 -181 10 -20 19 -54 19 -74 0 -39 10 -86 37 -167 11 -36 14 -79 11
-175 -3 -110 -7 -134 -27 -171 -20 -37 -25 -64 -31 -185 -4 -78 -12 -155 -18
-170 -7 -16 -12 -64 -12 -107 0 -78 0 -79 36 -108 21 -18 52 -32 76 -35 23 -3
44 -10 48 -16 3 -6 -2 -68 -12 -139 -16 -109 -18 -160 -12 -357 4 -126 8 -271
8 -322 1 -50 4 -95 9 -99 4 -4 7 -177 7 -385 0 -338 -2 -379 -16 -387 -12 -7
-24 -1 -48 24 -46 49 -275 174 -320 174 -68 0 -225 -66 -286 -121 -49 -43 -91
-69 -115 -69 -11 0 -44 -11 -73 -25 -38 -18 -71 -25 -112 -25 -52 0 -61 3 -83
30 -14 16 -31 55 -38 85 -12 56 -13 55 22 169 5 16 9 65 9 110 0 100 -23 146
-95 194 -28 19 -67 49 -88 66 -22 18 -75 55 -119 82 -82 49 -140 66 -283 81
-33 3 -71 11 -85 18 -14 7 -68 27 -120 45 -131 45 -171 69 -281 174 -105 100
-246 225 -303 269 -35 27 -36 30 -36 94 0 41 5 72 13 82 8 9 25 50 37 91 17
52 35 87 62 116 l38 41 0 124 c-1 137 -8 162 -58 188 -16 9 -48 33 -71 53
l-41 38 0 178 0 177 39 80 c32 67 55 96 137 175 111 106 142 165 130 238 -4
20 -11 78 -15 127 -12 132 -33 195 -76 223 -18 13 -41 35 -50 48 -8 13 -49 57
-90 99 l-75 75 0 147 c0 131 3 151 20 173 11 14 20 32 20 42 0 9 16 35 36 59
44 53 135 237 147 298 4 25 11 83 14 128 4 73 3 85 -16 109 -12 15 -21 38 -21
53 0 50 -11 71 -36 71 -21 0 -24 5 -24 40 0 22 -7 56 -14 75 -20 46 -24 266
-7 317 20 61 142 125 281 147 36 6 90 18 120 25 30 8 81 20 113 26 71 14 121
59 137 122 6 24 17 60 25 80 8 21 19 89 25 152 6 63 15 130 21 148 5 18 16 67
25 108 18 87 32 115 73 153 45 42 269 131 397 157 65 14 186 69 221 101 41 40
91 142 98 205 8 62 26 141 43 185 6 15 30 37 54 50 40 23 74 37 273 112 44 16
85 35 90 41 9 11 80 30 150 42 160 26 254 63 303 118 32 36 71 113 108 211 35
94 51 123 88 166 17 20 43 58 58 83 23 39 40 53 95 79 l68 32 216 3 c198 4
220 3 261 -15 24 -11 66 -23 94 -27 27 -4 96 -31 154 -59 119 -57 210 -138
210 -186 1 -60 26 -136 49 -147 20 -10 19 -12 -21 -22 -24 -7 -54 -13 -68 -14
-21 -3 -25 -8 -25 -33 0 -26 4 -30 30 -33 17 -2 70 12 120 32 50 19 119 42
155 51 103 26 199 63 234 90 22 17 46 25 72 25 22 0 74 13 116 30 85 32 267
63 344 58 l49 -3 16 -60 c21 -75 51 -151 94 -235 59 -117 105 -222 105 -240 0
-10 8 -28 18 -40 17 -21 21 -22 53 -10 19 7 59 16 89 20 30 5 82 15 115 24 43
11 109 15 239 16 174 0 180 -1 222 -25 50 -29 64 -50 64 -97 0 -18 12 -55 25
-83 14 -27 25 -58 25 -67 0 -34 32 -113 52 -130 16 -15 39 -18 117 -18 90 0
101 -2 142 -29 25 -15 73 -56 107 -90 l62 -62 0 -180 c0 -203 13 -272 58 -314
15 -14 30 -25 33 -25 4 0 9 -10 13 -22 4 -19 82 -122 113 -150 34 -32 83 -66
117 -83 35 -17 47 -32 85 -108 l44 -88 -21 -42 c-12 -23 -32 -55 -44 -70 -21
-26 -23 -38 -23 -155 1 -111 4 -138 28 -212 31 -92 41 -110 66 -110 9 0 46
-22 83 -48 82 -60 302 -171 373 -188 17 -4 44 -18 61 -31 17 -12 40 -23 51
-23 27 0 73 -51 73 -81 0 -13 -9 -74 -19 -136 -22 -132 -54 -200 -101 -210
-55 -11 -70 -86 -77 -378 l-4 -220 25 -24 c15 -14 36 -57 51 -102 31 -91 83
-156 155 -192 26 -13 47 -30 49 -42 2 -11 -7 -62 -20 -115 -19 -78 -30 -104
-63 -144 -37 -45 -41 -55 -44 -116 -3 -48 1 -77 12 -102 9 -19 31 -92 49 -163
29 -116 35 -130 62 -147 38 -23 73 -38 88 -38 36 -1 131 -40 158 -66 33 -30
103 -133 138 -203 18 -35 21 -58 21 -173 0 -116 -3 -137 -20 -163 -11 -16 -20
-37 -20 -46 0 -9 -18 -41 -41 -73 -22 -31 -43 -71 -46 -89 -5 -34 -37 -59
-140 -111 -28 -14 -54 -30 -58 -36 -11 -18 -76 -40 -116 -40 -34 0 -42 -5 -65
-39 l-25 -39 5 -178 c3 -99 8 -218 12 -266 5 -84 4 -91 -31 -175 -20 -48 -43
-112 -52 -142 -15 -48 -21 -55 -61 -72 -31 -14 -68 -19 -130 -19 -73 0 -91 3
-121 23 -135 88 -136 89 -240 84 -53 -3 -118 -9 -146 -15 -165 -33 -193 -41
-232 -72 -13 -10 -41 -24 -61 -31 -20 -6 -50 -22 -65 -35 -16 -13 -33 -24 -38
-24 -6 0 -29 -13 -52 -28 -63 -43 -156 -85 -172 -78 -11 4 -15 22 -16 63 -1
86 -17 107 -143 196 -22 15 -26 25 -26 72 0 30 5 57 10 60 6 3 10 25 10 47 0
29 9 56 33 92 30 47 32 57 32 136 0 77 -3 89 -28 127 -39 57 -102 81 -183 68
-42 -6 -45 -8 -42 -33 3 -26 6 -27 75 -32 39 -3 73 -7 76 -10 30 -37 37 -61
37 -123 0 -59 -4 -74 -29 -110 -17 -25 -31 -61 -34 -87 -3 -25 -11 -66 -17
-91 -8 -28 -10 -65 -6 -93 7 -45 11 -49 77 -92 80 -52 99 -82 99 -157 0 -70
25 -97 93 -97 25 0 49 5 53 11 3 6 26 19 50 29 24 11 61 31 81 45 21 14 46 25
55 25 10 0 28 11 40 25 11 13 37 30 57 36 20 6 51 22 69 36 18 13 54 28 80 33
26 5 85 18 132 29 47 11 112 20 145 20 50 1 67 -4 104 -29 24 -17 48 -30 53
-30 5 0 24 -11 42 -25 30 -23 41 -25 140 -25 171 0 232 29 257 124 6 22 14 48
19 57 4 8 23 51 41 95 31 74 33 86 31 179 -1 55 -3 181 -5 280 l-2 180 35 6
c57 11 104 32 139 62 18 15 38 27 45 27 17 0 137 77 154 98 6 9 12 25 12 37 0
11 20 52 45 89 25 38 45 75 45 82 0 7 9 29 21 48 19 32 20 48 17 198 l-3 163
-58 97 c-61 102 -162 208 -197 208 -33 0 -127 28 -154 45 -15 10 -30 33 -35
54 -5 20 -19 74 -31 120 -11 46 -25 92 -30 102 -15 26 -12 136 3 146 32 21 68
95 92 193 36 147 27 178 -67 227 -49 26 -105 95 -119 146 -14 52 -43 109 -63
126 -13 11 -16 41 -16 186 0 96 5 197 11 227 6 29 13 63 15 75 2 13 22 34 43
47 79 51 113 150 128 376 l5 86 -48 37 c-26 20 -56 37 -67 37 -10 0 -32 11
-49 25 -16 14 -36 25 -44 25 -15 0 -221 86 -239 100 -5 4 -32 20 -60 35 -27
15 -69 43 -92 61 -23 19 -48 34 -56 34 -22 0 -32 18 -56 97 -16 53 -21 98 -21
177 0 105 0 106 34 150 50 66 60 103 41 152 -51 126 -100 195 -160 223 -54 25
-167 139 -195 195 -11 23 -29 47 -40 54 -12 7 -30 33 -41 58 -17 40 -19 70
-19 238 l0 193 -72 73 c-40 40 -96 88 -125 106 -50 32 -56 34 -146 34 -64 0
-98 4 -104 13 -6 6 -16 35 -22 62 -7 28 -23 74 -37 104 -13 29 -24 67 -24 83
0 45 -25 84 -78 120 l-47 33 -205 3 c-193 3 -308 -6 -335 -28 -5 -4 -36 -10
-69 -12 l-58 -5 -40 86 c-21 47 -61 131 -88 186 -27 55 -61 139 -75 186 -14
47 -34 94 -45 104 -37 33 -259 16 -415 -31 -101 -31 -112 -34 -144 -34 -36 0
-63 -12 -104 -46 -15 -13 -74 -38 -130 -55 -56 -17 -128 -39 -159 -49 l-56
-18 -1 32 c-1 17 -1 56 -2 86 0 49 -5 61 -46 115 -74 98 -238 194 -373 220
-19 4 -59 15 -88 26 -46 17 -79 19 -270 18 -119 -1 -236 -5 -258 -9z m714
-1177 c-10 -2 -28 -2 -40 0 -13 2 -5 4 17 4 22 1 32 -1 23 -4z m-138 -23 c0
-5 -14 -10 -31 -10 -17 0 -28 4 -24 10 3 6 17 10 31 10 13 0 24 -4 24 -10z
m595 -25 c72 -14 148 -30 170 -34 22 -5 67 -14 100 -21 73 -14 130 -33 204
-66 31 -15 79 -35 106 -46 83 -32 114 -48 148 -76 36 -31 94 -76 141 -110 17
-12 93 -84 170 -160 140 -138 233 -257 316 -402 24 -41 62 -102 84 -135 39
-56 116 -205 116 -223 0 -5 9 -28 21 -51 38 -80 48 -132 60 -327 12 -197 8
-332 -11 -439 -14 -79 -25 -150 -40 -259 -8 -57 -23 -113 -41 -153 -28 -62
-46 -118 -56 -178 -7 -47 23 -76 72 -68 37 6 38 5 31 -18 -3 -13 -13 -48 -21
-77 -15 -54 -45 -109 -45 -82 -1 22 -30 53 -79 86 -55 37 -81 51 -105 59 -14
4 -17 12 -13 33 3 15 8 44 12 65 7 33 4 42 -16 63 -13 13 -32 32 -42 42 -21
22 -47 118 -47 172 0 22 -11 69 -25 106 -27 72 -33 162 -14 211 6 15 15 64 20
108 16 143 42 229 89 287 l42 53 -5 105 c-5 123 -33 223 -75 267 -25 27 -35
30 -155 43 -104 10 -130 16 -137 31 -6 10 -10 94 -10 187 l0 168 -51 75 c-28
41 -65 98 -81 127 -37 64 -76 95 -147 116 -30 9 -65 26 -78 38 l-23 22 -21
-21 -21 -21 29 -31 c18 -21 45 -36 80 -45 75 -20 76 -21 178 -174 l75 -114 0
-174 0 -174 28 -30 c24 -28 35 -32 112 -40 187 -20 176 -16 201 -74 28 -65 41
-262 18 -280 -65 -51 -120 -259 -135 -516 -5 -76 -2 -104 11 -140 10 -25 21
-74 25 -110 11 -87 30 -184 38 -190 4 -3 22 -21 40 -41 32 -34 32 -36 22 -88
-13 -70 1 -100 57 -121 22 -8 50 -23 60 -33 11 -9 23 -17 28 -17 24 0 45 -36
45 -75 0 -23 5 -55 10 -72 9 -24 7 -39 -9 -75 -11 -25 -24 -49 -30 -52 -6 -4
-11 -20 -11 -37 0 -26 -28 -98 -78 -197 -9 -19 -34 -52 -57 -75 -60 -62 -101
-124 -126 -189 -18 -49 -31 -66 -75 -99 -29 -22 -65 -56 -78 -76 l-25 -36 -11
27 c-5 15 -10 69 -10 120 l0 93 50 50 c57 57 82 91 134 186 47 87 60 140 60
257 0 82 -4 103 -27 154 -15 32 -34 86 -43 119 -8 34 -22 70 -30 81 -8 11 -14
28 -14 38 0 10 -18 30 -40 44 l-40 27 4 141 c2 78 9 159 15 181 6 22 11 72 11
110 0 73 -12 103 -59 153 -23 24 -154 92 -177 92 -7 0 -22 12 -31 27 -15 23
-18 56 -21 225 -3 175 -2 205 16 260 49 157 47 143 21 193 -13 25 -43 64 -66
87 -37 37 -50 42 -103 49 -94 11 -162 57 -213 144 -117 200 -120 211 -136 545
-10 226 -41 328 -103 344 -13 3 -41 28 -62 55 l-40 50 -65 -6 c-36 -3 -82 -13
-101 -22 l-35 -16 -6 -110 c-4 -65 -13 -126 -23 -149 -9 -21 -16 -51 -16 -65
0 -51 -126 -139 -219 -152 -30 -4 -62 -16 -75 -27 -11 -11 -37 -27 -57 -35
-19 -8 -55 -27 -80 -43 -24 -15 -73 -42 -109 -59 -79 -39 -175 -121 -227 -195
l-38 -55 -5 -190 -5 -190 -52 -90 c-57 -96 -91 -128 -238 -216 -78 -47 -85
-54 -117 -119 -19 -39 -22 -62 -22 -175 -1 -71 5 -164 12 -206 12 -73 12 -79
-10 -120 -24 -48 -83 -105 -134 -132 -19 -9 -34 -22 -34 -27 0 -5 -16 -25 -35
-44 -75 -75 -97 -214 -50 -314 14 -30 25 -72 25 -94 0 -23 5 -81 12 -129 11
-86 11 -90 -10 -109 -13 -12 -22 -33 -22 -50 0 -38 -15 -77 -45 -111 -16 -19
-26 -48 -31 -86 l-7 -57 -57 115 c-31 62 -76 143 -98 177 -48 74 -46 69 -71
192 -17 84 -18 98 -5 129 8 18 14 42 14 52 0 18 85 151 136 212 13 15 28 43
33 62 5 19 19 48 30 64 12 16 21 34 21 40 0 6 3 11 8 11 17 0 56 76 66 128 12
71 12 191 -1 257 -6 28 -26 77 -46 109 -21 33 -37 65 -37 71 0 6 -14 24 -31
41 -17 16 -44 52 -60 80 -16 28 -38 59 -49 69 -14 13 -20 31 -20 60 0 38 5 46
48 84 26 23 61 49 79 59 78 42 257 185 350 279 l53 53 0 155 0 156 46 20 c26
11 83 47 127 80 93 71 234 159 255 159 8 0 29 16 47 35 33 34 55 81 75 162 7
30 19 47 40 60 32 18 34 22 24 47 -9 25 -50 19 -84 -11 -23 -21 -35 -44 -46
-93 -19 -81 -52 -124 -117 -155 -62 -30 -137 -79 -246 -161 -47 -36 -96 -65
-116 -68 -60 -12 -70 -38 -73 -213 l-4 -152 -48 -48 c-65 -65 -134 -123 -213
-178 -37 -25 -69 -51 -72 -56 -4 -5 -22 -16 -42 -24 -19 -8 -62 -41 -94 -74
-58 -57 -59 -59 -59 -115 0 -49 4 -60 34 -93 18 -21 41 -54 51 -73 10 -19 35
-54 56 -77 22 -24 39 -48 39 -56 0 -7 16 -37 35 -67 24 -37 35 -66 35 -92 0
-20 5 -40 11 -44 7 -4 9 -27 6 -63 -12 -115 -23 -148 -75 -224 -28 -42 -55
-91 -60 -109 -8 -29 -64 -114 -131 -198 l-20 -25 -1 58 c0 55 -7 77 -54 162
-9 17 -16 42 -16 57 0 16 -13 42 -32 63 l-31 36 12 322 c7 177 14 331 17 342
5 20 40 212 54 295 9 54 34 122 55 153 8 12 15 36 15 55 0 21 10 47 28 70 16
20 67 89 114 152 48 63 118 147 156 187 78 81 156 176 198 244 16 25 45 63 64
86 39 45 217 170 252 177 13 3 39 7 58 10 19 4 95 31 169 61 137 55 345 111
521 139 52 9 120 20 150 25 71 12 127 8 285 -24z m-687 6 c10 -6 3 -10 -22
-15 -42 -8 -71 3 -40 15 26 10 46 10 62 0z m-98 -31 c-20 -13 -60 -13 -60 0 0
6 17 10 38 10 27 0 33 -3 22 -10z m-70 -20 c0 -5 -11 -10 -24 -10 -13 0 -29
-7 -36 -15 -7 -8 -18 -15 -24 -15 -7 0 -31 -9 -55 -21 -23 -11 -55 -19 -69
-17 -26 3 -25 4 13 21 22 10 47 22 55 27 9 4 30 11 48 14 17 4 34 12 37 17 8
12 55 12 55 -1z m920 -95 c14 -19 30 -35 37 -35 7 0 24 -10 38 -23 39 -33 55
-115 55 -282 1 -95 5 -153 15 -180 8 -22 15 -68 15 -102 0 -49 6 -75 30 -121
17 -33 30 -66 30 -75 0 -8 7 -20 15 -27 8 -6 34 -46 59 -88 25 -43 56 -82 68
-88 13 -6 47 -23 76 -39 29 -15 74 -30 100 -32 50 -6 92 -36 117 -83 16 -31 6
-104 -25 -175 -20 -47 -22 -63 -18 -253 l3 -204 -55 62 c-38 42 -66 64 -90 70
-19 5 -57 17 -84 26 l-48 17 48 23 c95 45 166 125 97 107 -37 -9 -136 -49
-195 -79 -68 -35 -181 -150 -203 -207 -16 -42 -16 -56 -5 -144 14 -117 28
-150 83 -198 55 -49 98 -65 184 -72 64 -5 78 -3 127 21 81 40 140 139 153 256
6 64 12 73 28 39 6 -14 37 -32 85 -51 168 -66 194 -121 146 -308 -19 -73 -23
-166 -12 -255 12 -97 14 -102 45 -113 35 -12 59 -55 91 -162 12 -41 34 -97 47
-124 54 -107 7 -204 -148 -302 -49 -31 -89 -60 -89 -63 0 -7 -138 -107 -175
-127 -11 -6 -40 -22 -65 -35 -132 -73 -301 -123 -505 -149 -119 -15 -634 -12
-795 5 -167 18 -226 34 -291 81 -26 19 -49 34 -53 34 -3 0 -29 15 -58 33 -29
18 -91 53 -138 76 -47 24 -94 52 -105 61 -11 10 -65 46 -120 81 -55 35 -111
74 -125 86 -14 13 -28 23 -31 23 -4 0 -14 11 -23 25 -16 25 -16 27 8 56 20 23
26 42 26 76 0 44 -13 105 -30 148 -5 11 -11 36 -14 55 -2 19 -7 55 -11 80 -3
25 -11 68 -17 96 -21 98 21 166 186 304 41 34 70 67 77 88 13 39 18 39 65 7
82 -55 199 -62 296 -15 88 42 134 88 146 147 33 157 25 206 -46 276 -26 25
-67 55 -92 67 -25 12 -52 26 -60 31 -8 5 -26 14 -40 20 l-25 10 25 20 c14 11
49 31 78 45 57 28 67 56 23 62 -38 6 -255 -111 -320 -171 l-34 -32 7 30 c11
46 31 70 83 100 26 16 85 54 130 87 65 47 90 72 122 126 87 144 85 137 91 342
l5 185 35 44 c64 82 140 142 205 164 17 6 48 22 70 37 81 55 216 120 249 120
18 0 44 8 57 19 13 10 42 28 64 39 62 32 102 75 115 123 7 24 16 54 21 67 5
13 12 69 15 125 3 56 7 108 10 115 2 8 23 12 61 12 54 -1 60 -3 83 -35z
m-1647 -371 c-15 -19 -38 -49 -51 -66 -12 -18 -61 -70 -107 -117 -46 -47 -101
-108 -121 -134 -44 -59 -55 -56 -17 6 85 136 315 396 321 363 2 -9 -9 -33 -25
-52z m2942 -294 c3 -5 1 -10 -4 -10 -6 0 -11 5 -11 10 0 6 2 10 4 10 3 0 8 -4
11 -10z m25 -36 c0 -8 -5 -12 -10 -9 -6 4 -8 11 -5 16 9 14 15 11 15 -7z m17
-46 c-3 -8 -6 -5 -6 6 -1 11 2 17 5 13 3 -3 4 -12 1 -19z m33 -39 c0 -5 -4 -9
-10 -9 -5 0 -10 7 -10 16 0 8 5 12 10 9 6 -3 10 -10 10 -16z m17 -41 c-3 -8
-6 -5 -6 6 -1 11 2 17 5 13 3 -3 4 -12 1 -19z m-3037 -2344 c133 -137 435
-329 620 -394 19 -6 44 -16 55 -20 51 -20 115 -40 169 -52 62 -14 68 -20 79
-90 7 -44 -4 -49 -27 -13 -20 30 -42 31 -98 6 -24 -11 -83 -32 -133 -47 -49
-15 -121 -40 -160 -55 -83 -34 -67 -41 -220 101 -106 98 -166 140 -200 140
-23 0 -167 148 -189 194 -11 23 -16 51 -13 70 36 230 42 238 117 160z m2659
-69 c-18 -36 -36 -65 -40 -65 -4 0 -11 -9 -14 -20 -4 -11 -33 -49 -66 -83 -33
-34 -62 -73 -66 -85 -3 -13 -3 -66 -1 -118 4 -73 11 -104 31 -145 19 -39 23
-58 16 -75 -10 -27 -35 -31 -64 -10 -53 37 -311 117 -420 130 -27 4 -74 12
-103 18 -51 11 -53 13 -50 42 3 28 8 32 83 57 83 27 93 30 160 56 64 25 74 29
188 83 59 28 107 54 107 59 0 5 20 18 44 30 30 14 52 33 67 61 12 22 25 40 29
40 3 0 32 22 65 49 33 27 62 48 64 45 2 -2 -11 -33 -30 -69z m-2582 -419 c38
-12 77 -42 164 -122 63 -57 115 -108 116 -112 3 -8 -70 -56 -118 -77 -47 -20
-59 -32 -98 -95 -102 -165 -141 -257 -170 -410 -6 -34 -8 -35 -46 -31 -73 6
-77 12 -71 99 2 42 9 143 14 223 8 118 14 154 33 195 19 42 23 69 27 193 4
133 1 156 -26 256 -3 13 19 -2 61 -41 44 -42 82 -67 114 -78z m1737 -3 c3 -10
2 -31 -2 -48 -10 -35 -79 -74 -168 -94 -30 -7 -67 -19 -82 -26 -67 -34 -294
-44 -432 -20 -102 18 -140 32 -134 50 3 7 1 37 -5 66 -5 30 -6 57 -3 60 4 4
59 1 122 -7 63 -7 165 -13 227 -13 112 -1 342 21 398 38 48 15 73 13 79 -6z
m206 -112 c100 -14 295 -71 382 -111 l27 -13 -22 -29 c-12 -16 -44 -46 -72
-67 -54 -41 -315 -181 -338 -181 -8 0 -28 -7 -45 -15 -17 -9 -57 -20 -89 -25
-32 -5 -70 -19 -85 -30 -15 -11 -34 -20 -43 -20 -20 0 -112 -39 -231 -96 -71
-34 -99 -54 -131 -94 -23 -28 -44 -56 -46 -63 -3 -9 -8 -9 -18 1 -7 6 -30 12
-50 12 -21 0 -41 5 -44 10 -3 6 -15 10 -26 10 -10 0 -19 4 -19 9 0 15 -113 97
-165 120 -26 12 -65 37 -86 56 -21 19 -62 50 -92 70 -29 19 -69 55 -90 79 -20
25 -57 59 -82 77 -25 18 -70 63 -99 99 l-54 67 67 25 c83 31 262 88 277 88 6
0 19 -9 30 -21 32 -35 125 -76 199 -88 39 -6 86 -15 105 -21 51 -15 197 -12
260 5 30 8 70 15 88 15 18 0 46 7 62 15 16 8 56 21 89 29 68 16 159 62 175 89
12 20 3 20 166 -2z m-1538 -217 c24 -26 65 -68 92 -93 26 -25 76 -74 110 -107
33 -34 84 -76 111 -94 28 -19 66 -49 85 -67 19 -19 59 -45 89 -59 61 -29 151
-92 151 -105 0 -11 57 -42 90 -49 17 -3 25 -12 26 -26 2 -32 13 -44 40 -44
l24 0 0 -137 c-1 -101 -5 -145 -15 -163 -9 -16 -14 -55 -15 -108 l0 -82 -362
2 -363 3 -7 55 c-4 30 -10 82 -13 115 -10 94 -13 105 -35 105 -18 0 -20 -7
-20 -65 l0 -65 -180 0 c-158 0 -188 -3 -238 -21 -97 -35 -92 -35 -92 2 0 32 4
36 58 59 52 22 74 25 237 30 161 4 180 7 183 23 3 16 -11 17 -185 17 -178 0
-229 -7 -271 -34 -7 -4 -16 -5 -20 -2 -11 11 28 290 43 305 8 8 11 27 8 51
-12 86 94 367 163 434 106 103 132 125 158 132 16 4 41 13 55 20 39 21 46 18
93 -32z m2051 35 c48 -25 165 -120 220 -179 105 -111 189 -231 257 -367 21
-44 47 -86 56 -93 19 -17 117 -219 132 -275 15 -54 26 -198 18 -229 -5 -21
-10 -24 -24 -17 -54 30 -172 51 -332 60 l-115 6 -3 29 -4 28 64 -7 c35 -3 90
-11 123 -16 33 -6 105 -11 160 -12 94 -2 100 -1 100 18 0 17 -8 20 -60 23 -88
4 -368 41 -377 50 -4 4 -8 43 -10 87 -3 74 -5 80 -25 83 -22 3 -23 3 -25 -175
l-3 -178 -670 0 -670 0 -3 79 c-2 46 2 84 8 90 6 6 10 79 10 192 0 149 3 184
15 194 8 7 15 18 15 24 1 28 72 86 155 128 106 53 191 88 215 88 10 0 29 9 43
20 15 12 52 25 84 30 32 5 74 16 93 24 105 42 188 80 210 95 14 10 56 33 93
52 39 19 97 61 134 97 69 65 80 69 116 51z m-2045 -1121 l3 -48 -265 0 c-269
0 -282 2 -258 35 4 6 34 22 67 37 59 26 64 26 255 25 l195 -2 3 -47z m2425
-24 c79 -11 41 -24 -69 -24 -95 0 -116 5 -97 23 8 9 106 9 166 1z m271 -59
l37 -16 -3 -102 -3 -102 -47 -3 -48 -3 0 120 c0 134 -1 133 64 106z m-3145
-29 c8 -10 8 -23 -3 -54 -8 -22 -12 -50 -9 -62 8 -30 -18 -145 -28 -128 -10
15 -12 218 -3 242 8 20 28 21 43 2z m1786 1 c552 -4 1091 -21 1140 -35 21 -6
31 -16 37 -38 23 -96 30 -123 40 -164 9 -31 13 -188 15 -502 l2 -458 -22 -4
c-12 -3 -35 -8 -52 -11 -16 -4 -102 -11 -190 -15 -88 -5 -194 -13 -235 -19
-84 -11 -2129 -15 -2392 -4 l-158 6 0 386 c0 305 3 405 16 475 8 50 20 98 25
108 6 10 14 62 18 114 12 142 17 146 172 161 82 7 285 10 594 7 259 -2 704 -5
990 -7z m1229 7 c11 -4 16 -19 16 -46 0 -41 -14 -45 -23 -6 -2 13 -8 31 -12
41 -8 18 -5 20 19 11z m144 -381 c-4 -101 -10 -138 -27 -176 -11 -27 -24 -74
-28 -104 -15 -132 -26 19 -24 320 l1 87 41 0 42 0 -5 -127z m-108 -932 c0 -37
-68 -47 -395 -60 -121 -5 -233 -14 -249 -21 -40 -15 -2207 -16 -2285 -1 -29 6
-75 11 -101 11 -82 0 -110 9 -110 37 0 13 7 26 16 30 9 3 118 1 242 -5 125 -7
337 -13 472 -14 225 -2 246 -4 263 -21 16 -16 27 -18 66 -12 25 5 60 7 76 6
169 -11 1370 28 1475 48 60 12 530 13 530 2z m-2303 -724 c7 -12 -35 -49 -48
-41 -5 3 -9 18 -9 33 0 25 3 28 25 23 14 -2 28 -9 32 -15z m1440 -369 c-3 -8
-6 -5 -6 6 -1 11 2 17 5 13 3 -3 4 -12 1 -19z m168 2 c28 -5 77 -14 110 -19
33 -5 73 -14 88 -20 16 -6 55 -11 88 -11 73 0 202 -33 249 -64 20 -13 73 -30
120 -39 187 -36 257 -47 290 -47 19 0 55 -9 79 -20 24 -11 49 -20 57 -20 17 0
19 -17 3 -22 -7 -2 -39 0 -73 5 -34 5 -101 12 -151 16 -54 4 -111 16 -142 29
-35 14 -101 27 -195 37 -79 8 -168 19 -198 25 -30 6 -145 10 -255 9 l-200 -1
1 53 c1 30 7 67 13 83 10 24 16 27 39 23 15 -4 50 -11 77 -17z m-1630 -51 c9
-17 15 -42 13 -57 -3 -27 -4 -27 -68 -24 -179 7 -491 4 -620 -6 -176 -14 -374
-16 -415 -4 l-30 9 40 8 c22 4 63 13 90 21 32 9 131 16 273 19 147 4 237 10
265 19 23 8 102 17 176 21 73 3 143 10 155 15 11 5 40 9 63 9 38 1 44 -3 58
-30z m3211 0 c19 -16 8 -92 -23 -156 -21 -45 -30 -54 -64 -63 -21 -6 -85 -9
-141 -8 -126 4 -138 18 -53 63 70 38 105 91 97 149 l-5 39 88 -7 c49 -3 94
-11 101 -17z m-3263 -135 c73 -6 77 -10 53 -66 -8 -18 -24 -64 -36 -103 -22
-71 -84 -195 -124 -250 -12 -16 -50 -75 -84 -130 -63 -103 -86 -124 -172 -159
-25 -10 -65 -27 -88 -38 -69 -30 -103 -36 -383 -66 -84 -9 -99 -15 -99 -41 0
-16 8 -18 78 -13 42 2 85 8 94 13 9 5 43 9 75 9 32 0 90 7 128 16 76 17 82 19
168 58 32 14 62 26 67 26 16 0 82 45 107 71 11 13 43 60 70 104 26 44 62 100
79 125 39 55 114 200 114 217 0 7 7 13 16 13 15 0 16 -12 11 -113 -5 -116 -27
-207 -57 -242 -20 -23 -70 -128 -70 -146 0 -49 -136 -147 -300 -217 -116 -50
-160 -60 -301 -69 -83 -4 -105 -2 -160 17 -129 45 -141 60 -194 240 -16 52
-34 113 -41 135 -13 43 -4 75 21 75 8 0 31 7 52 16 104 45 178 65 280 74 101
9 115 14 106 35 -9 26 -241 11 -269 -18 -4 -4 -14 -7 -23 -7 -8 0 -52 -14 -98
-31 -46 -18 -86 -29 -90 -26 -11 12 -3 242 11 287 7 25 11 50 9 56 -6 18 34
24 179 24 80 0 139 4 143 10 3 6 13 10 21 10 8 0 31 10 52 23 20 13 65 32 100
43 36 11 68 27 74 37 9 18 23 18 211 13 111 -3 232 -8 270 -12z m-643 -13 c0
-5 -24 -21 -52 -34 -47 -22 -68 -25 -198 -28 -80 -2 -150 0 -156 4 -7 4 -14
18 -16 32 l-5 25 171 3 c94 1 190 4 214 5 23 1 42 -2 42 -7z m2760 -13 c79
-11 90 -15 63 -21 -19 -4 -33 -13 -33 -21 0 -30 52 -44 220 -56 210 -16 277
-34 313 -84 20 -28 22 -46 26 -173 4 -154 2 -159 -47 -125 -53 36 -128 67
-182 73 -30 4 -75 12 -100 19 -53 14 -182 8 -222 -11 -17 -7 -28 -20 -28 -32
0 -16 5 -18 33 -13 82 16 138 17 225 2 50 -9 101 -16 113 -16 34 0 121 -48
173 -95 l48 -44 -5 -63 c-10 -142 -46 -208 -147 -273 -103 -66 -123 -70 -314
-68 -189 3 -266 13 -318 40 -44 22 -166 104 -194 129 -37 34 -174 260 -202
334 -33 87 -21 470 16 507 12 12 50 14 241 10 124 -3 269 -11 321 -19z m225
-39 c5 -5 -4 -9 -22 -9 -36 0 -63 9 -63 20 0 11 71 1 85 -11z m521 -46 c-5
-13 -47 -18 -58 -7 -4 3 6 18 20 34 26 28 27 28 35 8 4 -12 5 -28 3 -35z
m-151 -23 c3 -5 -1 -10 -10 -10 -9 0 -13 5 -10 10 3 6 8 10 10 10 2 0 7 -4 10
-10z m986 -375 c18 -27 52 -76 77 -108 37 -49 42 -60 31 -73 -9 -11 -22 -14
-43 -9 -17 3 -55 8 -84 10 -30 2 -60 9 -68 16 -16 13 -18 63 -8 182 l7 76 27
-22 c15 -12 42 -44 61 -72z m-701 49 c27 -4 71 -23 108 -47 62 -40 64 -42 58
-76 -4 -20 -9 -62 -12 -93 l-6 -58 48 -50 c48 -50 84 -63 101 -37 4 6 15 35
24 64 21 67 67 145 82 140 7 -2 13 -30 15 -68 3 -62 5 -67 52 -118 42 -46 53
-53 77 -48 108 22 141 31 172 47 20 10 54 21 76 24 38 6 41 4 64 -29 13 -20
28 -62 33 -93 10 -63 31 -131 53 -171 24 -44 45 -102 45 -127 0 -35 -30 -31
-82 11 -88 71 -119 87 -151 81 -16 -3 -35 -2 -42 4 -7 5 -61 13 -121 17 l-109
6 -59 50 c-33 27 -66 56 -75 64 -12 12 -29 14 -78 10 -78 -8 -83 -11 -83 -48
0 -17 -6 -32 -15 -35 -14 -6 -159 24 -262 53 -55 16 -56 17 -69 108 -10 76
-19 88 -61 82 l-35 -6 8 32 c5 18 8 76 7 129 l-2 97 25 -11 c13 -6 27 -22 30
-35 4 -15 16 -25 33 -29 32 -6 128 -55 142 -71 6 -7 8 -21 4 -33 -7 -22 -35
-26 -65 -10 -25 13 -50 2 -50 -21 0 -33 58 -61 114 -55 60 7 86 28 86 71 0 20
6 35 15 39 21 8 19 45 -2 53 -10 4 -24 14 -30 24 -7 9 -25 20 -40 23 -16 4
-47 15 -70 24 -39 15 -43 20 -43 52 0 19 -4 42 -9 50 -14 21 -3 32 27 26 15
-3 47 -8 72 -12z"/>
<path d="M4864 7072 c-113 -39 -140 -81 -131 -206 7 -105 22 -146 52 -146 29
0 36 18 24 66 -10 47 -12 165 -1 180 10 15 80 50 118 58 17 4 53 2 80 -4 40
-9 58 -22 105 -71 40 -42 61 -58 72 -53 32 12 18 50 -40 114 -48 52 -66 63
-103 71 -69 13 -120 10 -176 -9z"/>
<path d="M4628 6583 c-58 -14 30 -123 161 -202 110 -67 125 -70 321 -70 189
-1 242 9 290 53 14 13 50 37 81 54 30 17 64 41 74 52 18 20 18 21 -1 40 -19
18 -20 18 -109 -36 -49 -30 -92 -59 -95 -63 -16 -26 -99 -41 -237 -41 -157 0
-206 11 -281 61 -24 16 -45 29 -48 29 -14 0 -67 48 -83 76 -22 36 -47 52 -73
47z"/>
<path d="M4717 3693 c-16 -4 -17 -20 -15 -201 l3 -197 630 0 630 0 3 194 c2
149 -1 196 -10 203 -13 8 -1209 9 -1241 1z"/>
<path d="M3550 1250 c-12 -7 -12 -12 -2 -22 17 -17 15 -38 -3 -38 -21 0 -19
-22 5 -43 21 -18 60 -23 60 -8 0 5 9 11 20 14 14 4 19 12 18 28 -3 20 2 25 32
29 27 4 35 10 35 25 0 18 -8 20 -75 23 -41 1 -82 -2 -90 -8z"/>
<path d="M3525 1110 c-13 -21 17 -40 62 -40 57 0 89 16 72 36 -14 17 -124 20
-134 4z"/>
<path d="M6117 1423 c-33 -32 42 -240 126 -353 22 -30 43 -57 47 -60 6 -6 75
-96 103 -135 18 -25 82 -77 176 -142 25 -18 53 -41 61 -51 35 -42 63 -50 211
-61 107 -8 161 -8 203 0 61 13 87 32 68 51 -8 8 -25 8 -66 -1 -41 -9 -88 -9
-202 -1 -146 11 -149 12 -172 40 -12 16 -44 42 -70 59 -101 67 -156 112 -186
155 -17 24 -61 81 -97 125 -36 45 -70 91 -76 104 -46 97 -83 189 -83 206 0 46
-25 83 -43 64z"/>
<path d="M6861 1276 c-10 -11 -8 -17 6 -25 21 -11 9 -18 -42 -23 -32 -3 -47
-31 -21 -41 8 -3 63 -7 123 -8 99 -1 108 0 108 17 0 10 -11 24 -25 31 -14 7
-25 20 -25 30 0 29 -103 44 -124 19z"/>
<path d="M6783 1114 c-3 -8 -2 -19 3 -23 5 -5 73 -11 151 -14 116 -5 142 -3
147 8 3 8 2 16 -2 19 -19 11 -135 26 -209 26 -67 0 -85 -3 -90 -16z"/>
<path d="M5890 9741 c-109 -70 -122 -84 -99 -107 15 -14 19 -14 50 2 18 9 64
37 101 62 l67 44 118 -3 c111 -4 123 -6 184 -37 36 -18 87 -51 114 -73 28 -21
62 -47 76 -56 35 -22 49 -85 49 -216 0 -92 3 -108 30 -165 16 -34 37 -65 47
-68 10 -3 50 -19 88 -36 39 -17 115 -48 170 -70 55 -22 127 -54 160 -71 64
-33 195 -157 195 -184 0 -9 -20 -38 -45 -64 -32 -34 -45 -57 -45 -77 0 -16 -8
-51 -19 -78 -41 -108 -53 -220 -30 -293 33 -105 65 -157 143 -233 74 -72 174
-138 210 -138 22 0 114 -87 177 -166 l49 -62 0 -300 c0 -190 -4 -303 -10 -307
-6 -4 -10 -83 -10 -205 0 -305 19 -356 158 -424 l86 -41 28 -70 c31 -74 45
-157 34 -198 -3 -14 -21 -35 -40 -47 -19 -11 -38 -31 -42 -43 -3 -12 -14 -29
-23 -37 -34 -29 -108 -136 -135 -194 -23 -48 -27 -69 -24 -113 5 -60 25 -88
78 -110 91 -38 267 -199 311 -285 16 -31 33 -60 39 -63 6 -4 22 -32 36 -62 20
-47 24 -71 24 -157 l0 -102 -55 -84 c-53 -81 -55 -86 -55 -151 0 -55 4 -70 19
-81 24 -17 71 -110 71 -141 0 -13 5 -28 10 -33 11 -11 7 -377 -5 -543 -4 -46
-4 -94 0 -108 14 -58 175 -75 163 -17 -2 14 -15 21 -46 25 -60 8 -65 16 -57
90 12 121 17 571 5 583 -5 5 -10 19 -10 31 0 21 -41 110 -74 158 -24 36 -17
81 23 138 18 24 39 55 49 69 13 19 18 51 20 155 4 122 2 134 -21 187 -14 32
-37 72 -50 90 -14 18 -32 49 -41 69 -10 20 -58 76 -109 124 -127 121 -120 115
-189 150 -63 31 -63 31 -66 77 -5 75 62 184 205 333 50 52 57 74 51 168 -5 68
-48 194 -82 236 -6 8 -47 31 -91 52 -123 58 -121 50 -117 359 2 140 4 386 5
546 l2 291 -30 43 c-50 73 -183 207 -217 220 -94 34 -188 95 -188 120 0 5 -18
22 -41 37 -57 38 -118 169 -119 256 0 38 33 175 50 208 6 10 10 30 10 45 0 18
15 42 45 75 36 39 45 55 45 84 0 51 -18 81 -97 156 -73 71 -127 103 -256 150
-44 16 -113 45 -151 63 -39 18 -85 38 -103 45 -55 22 -73 67 -73 179 0 154
-33 272 -75 272 -6 0 -22 12 -36 26 -27 30 -103 80 -181 121 -50 26 -63 28
-198 31 l-145 3 -95 -60z"/>
<path d="M7580 8415 c-20 -24 -6 -39 60 -59 52 -17 70 -29 116 -80 30 -33 57
-72 60 -86 3 -14 14 -44 25 -68 16 -36 19 -66 19 -205 0 -138 3 -168 19 -204
25 -53 88 -139 166 -224 74 -83 102 -119 115 -154 5 -14 10 -96 10 -181 0
-134 -3 -164 -22 -222 -21 -60 -23 -85 -22 -242 1 -179 4 -196 54 -340 25 -71
92 -190 155 -275 101 -137 95 -122 95 -234 0 -82 -4 -109 -20 -141 -14 -27
-20 -59 -20 -104 0 -59 5 -74 47 -152 27 -48 73 -114 104 -148 30 -33 71 -88
89 -121 19 -33 50 -82 69 -110 36 -50 36 -50 39 -173 4 -121 3 -123 -26 -170
-16 -26 -33 -64 -37 -86 -3 -21 -15 -55 -26 -75 -15 -29 -19 -56 -19 -143 0
-113 9 -138 50 -138 18 0 20 -10 22 -107 3 -103 4 -108 25 -111 32 -5 43 30
43 139 0 99 -9 125 -46 139 -23 9 -24 14 -24 94 0 62 5 95 20 127 11 24 20 56
20 71 0 15 5 30 10 33 6 4 22 28 35 55 22 44 25 62 25 168 l0 118 -37 60 c-20
32 -57 94 -83 136 -26 43 -69 102 -96 132 -67 72 -144 212 -144 259 0 20 11
62 25 93 22 50 25 71 25 172 0 109 -1 117 -25 141 -39 40 -140 182 -169 236
-15 28 -33 61 -41 75 -8 14 -28 69 -44 122 -29 92 -31 105 -31 262 0 142 3
173 20 218 17 46 20 77 20 241 0 230 -1 233 -147 389 -40 43 -73 82 -73 86 0
5 -11 22 -25 38 -58 67 -65 97 -65 275 0 145 -2 169 -20 202 -11 20 -20 45
-20 56 0 10 -11 35 -25 55 -14 20 -25 39 -25 41 0 18 -105 99 -148 115 -63 24
-85 25 -102 5z"/>
<path d="M2627 7423 c-4 -3 -7 -33 -7 -66 0 -39 -5 -66 -15 -77 -8 -9 -25 -36
-38 -61 -14 -26 -36 -51 -55 -60 -18 -9 -54 -36 -81 -60 -90 -82 -176 -149
-256 -202 l-80 -52 0 -110 c0 -131 9 -150 107 -215 56 -37 65 -48 95 -116 30
-67 33 -84 33 -170 0 -75 -4 -103 -20 -134 -11 -21 -24 -41 -30 -45 -5 -3 -10
-14 -10 -24 0 -10 -13 -43 -29 -73 -37 -70 -53 -138 -58 -260 -5 -107 1 -122
65 -187 19 -19 64 -75 102 -125 37 -50 82 -104 99 -121 38 -36 61 -106 61
-190 0 -56 -3 -64 -37 -105 -43 -51 -80 -88 -109 -110 -11 -8 -42 -33 -69 -56
-28 -23 -62 -44 -77 -48 -47 -11 -77 -48 -109 -131 -69 -180 -69 -181 -69
-278 0 -98 5 -111 51 -139 14 -9 32 -30 38 -47 15 -36 33 -44 57 -27 25 19 11
59 -36 105 l-40 39 0 91 c0 77 4 99 24 139 13 26 31 73 40 104 17 59 44 88 82
88 11 0 34 12 50 28 16 15 56 48 89 74 33 26 87 80 119 119 67 81 76 115 57
225 -14 77 -38 128 -76 164 -15 14 -58 66 -95 115 -38 50 -86 109 -109 132
-22 23 -43 54 -47 67 -15 63 15 243 52 298 13 21 24 40 24 44 0 4 17 41 38 83
37 75 37 77 36 191 -1 109 -3 119 -35 190 -47 103 -49 105 -94 128 -22 11 -55
34 -72 51 -33 29 -33 31 -33 118 l1 88 67 42 c64 40 101 68 237 184 33 28 76
60 95 73 19 12 46 42 60 68 14 25 33 55 43 65 13 15 17 38 17 101 0 79 -1 82
-23 82 -13 0 -27 -3 -30 -7z"/>
<path d="M5046 1056 c-11 -26 -19 -34 -31 -30 -38 15 -62 -46 -25 -66 36 -19
120 20 120 56 0 6 7 15 16 18 9 3 14 15 12 28 -2 19 -10 24 -40 26 -34 3 -38
0 -52 -32z"/>
<path d="M4862 998 c-32 -32 5 -71 48 -48 30 16 23 54 -10 58 -14 2 -31 -3
-38 -10z"/>
</g>
</svg>
