<?xml version="1.0" standalone="no"?>
<!DOCTYPE svg PUBLIC "-//W3C//DTD SVG 20010904//EN"
 "http://www.w3.org/TR/2001/REC-SVG-20010904/DTD/svg10.dtd">
<svg version="1.0" xmlns="http://www.w3.org/2000/svg"
 width="500.000000pt" height="500.000000pt" viewBox="0 0 500.000000 500.000000"
 preserveAspectRatio="xMidYMid meet">

<g transform="translate(0.000000,500.000000) scale(0.100000,-0.100000)"
fill="#000000" stroke="none">
<path d="M1913 4896 c-17 -8 -43 -32 -57 -54 -14 -22 -30 -43 -35 -46 -5 -4
-19 -35 -31 -71 -25 -75 -64 -113 -127 -121 -106 -14 -296 -92 -320 -132 -6
-10 -14 -39 -18 -64 -4 -25 -17 -62 -28 -84 -23 -40 -17 -37 -212 -104 -112
-39 -130 -70 -166 -294 -11 -73 -14 -79 -43 -91 -17 -7 -49 -16 -71 -20 -78
-13 -148 -40 -176 -66 -27 -25 -29 -33 -29 -96 1 -73 16 -139 43 -190 36 -67
17 -136 -75 -281 -12 -19 -17 -50 -17 -107 l-1 -80 56 -55 c69 -69 70 -70 78
-157 l7 -73 -49 -52 c-76 -81 -92 -121 -92 -227 l0 -89 40 -35 c37 -31 40 -38
40 -84 0 -32 -5 -55 -14 -63 -8 -6 -20 -28 -27 -48 -6 -20 -15 -41 -20 -46 -5
-6 -9 -29 -9 -52 0 -42 2 -44 121 -148 132 -114 197 -148 311 -161 41 -5 70
-16 105 -41 26 -18 62 -43 80 -54 39 -26 46 -54 32 -121 -21 -99 5 -159 70
-159 48 0 118 25 152 55 16 12 49 31 74 41 l47 17 64 -33 c52 -26 66 -39 72
-64 8 -27 5 -33 -20 -49 -16 -9 -33 -17 -38 -17 -5 0 -17 -15 -26 -33 -9 -17
-32 -50 -50 -73 -44 -53 -70 -115 -83 -192 -10 -61 -13 -65 -88 -139 -77 -75
-89 -90 -168 -195 -117 -154 -211 -360 -254 -551 -23 -105 -11 -127 14 -24 43
177 116 357 200 490 30 47 40 56 51 46 22 -18 17 -32 -22 -70 -20 -18 -44 -51
-55 -71 -25 -49 -25 -125 1 -158 11 -14 20 -29 20 -35 0 -5 15 -17 33 -25 30
-14 32 -19 37 -75 7 -79 41 -145 75 -145 30 0 32 11 5 35 -31 28 -63 155 -38
155 26 0 36 -16 52 -79 20 -78 50 -129 80 -137 12 -3 44 -4 71 -2 l50 3 30 62
c29 60 32 63 90 82 51 16 126 25 184 22 9 -1 12 -10 9 -32 -4 -25 -1 -32 19
-40 13 -5 26 -9 27 -9 2 0 6 25 9 57 3 31 12 60 19 64 7 5 20 13 28 18 8 6 37
25 65 43 47 32 58 45 87 113 12 26 18 30 47 27 33 -4 71 19 71 42 1 25 39 60
67 61 25 0 28 4 28 32 0 35 15 43 35 18 15 -18 42 -19 58 -3 12 12 17 2 13
-28 -2 -17 20 -31 60 -39 51 -10 61 11 14 31 l-37 15 26 20 c33 26 33 59 1 87
-18 16 -25 32 -25 58 0 31 -3 35 -17 28 -10 -4 -35 -9 -55 -12 -37 -4 -38 -4
-32 26 5 25 2 32 -16 42 -25 13 -115 9 -130 -6 -5 -5 -13 -34 -17 -64 -6 -42
-13 -56 -27 -58 -17 -4 -18 0 -12 36 4 30 2 43 -8 49 -15 9 -38 81 -30 95 10
15 24 8 34 -18 13 -34 44 -29 48 9 2 15 8 27 14 27 6 0 20 8 30 17 11 9 25 18
33 19 8 1 30 7 50 14 27 9 40 9 48 1 7 -7 0 -15 -26 -26 -55 -23 -49 -48 16
-72 61 -22 101 -17 105 14 2 16 11 23 35 25 44 4 46 30 5 57 -18 12 -47 32
-65 45 -24 17 -51 25 -108 30 -83 8 -107 -2 -121 -47 -4 -12 -13 -27 -20 -35
-12 -11 -14 -10 -14 11 0 14 9 31 22 39 14 9 19 20 15 31 -5 13 -19 17 -62 17
-48 0 -56 3 -53 18 4 19 49 44 116 63 55 16 47 23 -17 14 -103 -14 -144 -74
-122 -175 6 -25 12 -65 13 -90 l3 -45 -100 -13 c-55 -7 -156 -17 -225 -21 -69
-5 -145 -14 -170 -21 -39 -10 -46 -9 -55 5 -5 9 -25 40 -43 68 -30 47 -32 57
-26 102 16 119 48 208 95 263 16 18 35 45 43 60 12 23 80 72 101 72 3 0 4 -12
1 -28 -13 -60 -43 -57 606 -56 845 2 898 6 898 69 0 14 3 25 6 25 20 0 175
-137 206 -181 47 -69 58 -113 58 -227 0 -103 -15 -145 -70 -201 -30 -30 -32
-30 -68 -16 -20 7 -75 19 -122 25 -47 6 -98 20 -115 30 -16 10 -68 24 -115 30
-47 6 -106 16 -131 21 l-45 10 7 52 c4 29 8 81 8 115 1 59 -1 66 -29 90 -31
27 -197 92 -236 92 -12 0 -35 -7 -50 -15 -16 -8 -54 -15 -84 -16 -30 0 -73 -4
-95 -8 -32 -7 -21 -9 58 -10 68 -1 109 4 135 14 35 15 41 15 133 -15 67 -21
104 -39 124 -60 27 -28 28 -31 21 -107 -8 -102 -14 -121 -38 -129 -17 -5 -19
-12 -14 -57 4 -29 7 -110 9 -182 l2 -130 47 -80 c49 -82 112 -137 177 -155 20
-5 25 -12 23 -31 -3 -27 -66 -87 -120 -116 -43 -22 -50 -38 -20 -47 13 -3 269
-6 571 -6 492 0 547 2 547 16 0 28 -40 177 -72 264 -67 188 -192 386 -338 535
l-69 70 -10 78 c-13 90 -28 130 -73 193 -30 41 -134 130 -209 177 -34 22 -37
55 -13 144 56 206 56 210 51 388 l-5 170 -62 125 c-35 69 -76 144 -91 168
l-28 42 50 38 c33 24 45 38 35 40 -16 3 -38 -11 -114 -73 -99 -81 -195 -123
-330 -144 -93 -14 -270 -15 -256 -1 14 14 152 70 172 70 26 0 197 89 239 124
30 26 45 33 66 29 28 -5 28 -5 26 42 -3 44 0 51 33 79 20 17 43 47 52 66 9 20
30 51 47 70 29 31 69 108 69 131 0 5 7 21 16 34 l16 25 31 -23 c18 -12 40 -26
51 -32 68 -35 100 -186 56 -268 -11 -20 -20 -50 -20 -66 0 -16 -7 -45 -15 -64
-36 -86 -6 -174 69 -207 34 -14 47 -28 71 -75 26 -52 30 -72 35 -176 4 -96 8
-121 24 -138 20 -22 46 -28 46 -11 0 6 -4 10 -9 10 -22 0 -41 71 -41 154 0
131 -44 235 -107 257 -18 6 -42 24 -54 40 -18 25 -20 39 -15 82 8 78 29 162
44 180 23 28 27 128 7 191 -19 60 -49 96 -114 136 -22 14 -43 31 -45 38 -3 7
8 41 24 76 17 35 30 68 30 74 0 6 10 14 23 18 73 22 101 71 136 231 19 85 21
110 12 157 -15 81 -33 109 -88 135 -26 13 -54 26 -61 30 -7 3 -27 47 -43 96
-56 168 -126 281 -246 396 -167 161 -318 227 -578 252 -83 9 -264 -18 -355
-51 -12 -5 -13 -3 -3 9 6 8 15 42 19 77 10 88 29 102 140 102 75 0 89 -3 132
-30 46 -28 93 -40 92 -22 -1 4 -31 22 -68 41 -65 32 -70 33 -170 30 -98 -4
-103 -5 -127 -33 -14 -16 -25 -39 -25 -51 0 -43 -13 -87 -27 -92 -8 -3 -35 4
-60 17 -40 20 -56 22 -142 18 -109 -5 -136 -16 -180 -72 -24 -30 -31 -49 -31
-82 0 -53 -27 -76 -115 -95 -52 -11 -66 -20 -107 -62 -48 -52 -58 -78 -58
-156 -1 -76 -21 -93 -121 -101 -70 -5 -97 -13 -164 -46 -76 -37 -80 -41 -87
-79 -4 -22 -7 -129 -7 -237 -1 -194 -1 -198 -24 -210 -12 -7 -50 -33 -84 -58
-72 -53 -101 -105 -110 -204 -6 -67 -7 -64 72 -216 12 -25 31 -84 41 -132 l18
-88 -49 -97 c-28 -53 -61 -113 -74 -132 -27 -42 -45 -144 -36 -216 15 -120 41
-168 96 -180 16 -4 31 -11 34 -16 9 -14 55 -11 55 4 0 8 -23 19 -56 27 -53 13
-58 17 -78 59 -17 38 -21 64 -20 151 0 101 2 107 37 173 104 191 107 198 107
247 0 65 -45 215 -80 269 -17 24 -33 59 -36 78 -9 49 4 150 25 184 19 30 79
80 140 115 l36 20 6 215 c3 118 9 227 14 243 12 42 131 96 213 96 76 0 126 20
140 57 6 15 12 56 14 89 4 55 9 67 46 111 36 44 50 52 115 71 103 30 127 51
127 111 0 94 59 135 195 136 77 0 95 -3 125 -22 19 -13 44 -23 55 -23 11 0
-18 -21 -64 -46 -150 -80 -295 -218 -372 -352 -29 -51 -32 -54 -62 -48 -49 9
-157 -48 -179 -95 -35 -70 -47 -202 -31 -348 5 -50 12 -68 34 -90 19 -19 25
-32 18 -42 -15 -23 -10 -74 11 -120 26 -58 27 -153 2 -191 -21 -31 -85 -88
-120 -107 -71 -37 -65 -228 9 -332 15 -21 18 -41 16 -97 -2 -38 -8 -76 -13
-83 -13 -17 -31 -88 -38 -152 -6 -54 8 -97 49 -152 26 -34 26 -55 1 -55 -7 0
-31 -13 -52 -28 -21 -16 -57 -35 -79 -44 -25 -10 -43 -25 -48 -39 -13 -35 7
-77 38 -84 14 -3 35 -7 48 -10 35 -7 61 -72 52 -132 -5 -42 -3 -51 17 -70 27
-25 78 -41 78 -24 0 6 -17 19 -38 30 l-38 20 4 60 c5 74 -16 128 -53 136 -14
3 -36 7 -49 10 -29 6 -43 40 -26 60 7 8 35 26 64 40 28 14 58 29 66 34 8 4 24
12 35 18 28 14 31 60 6 87 -58 61 -67 186 -20 266 25 43 31 60 24 77 -4 10 -7
44 -5 76 1 32 -3 57 -8 57 -15 0 -72 156 -72 195 0 43 25 102 49 114 38 21
107 84 123 115 22 40 24 160 3 209 -16 38 -19 84 -9 111 8 22 54 21 54 -1 0
-9 10 -30 23 -47 48 -66 56 -101 61 -287 6 -195 8 -188 -62 -232 -48 -31 -82
-79 -82 -118 0 -25 43 -69 97 -97 45 -24 63 -72 63 -169 0 -86 -2 -94 -41
-169 -39 -76 -40 -82 -37 -159 3 -75 7 -86 55 -173 29 -51 53 -107 55 -124 4
-41 28 -50 28 -10 0 16 -25 79 -55 138 -52 102 -55 113 -55 182 0 66 4 80 40
147 38 71 40 78 40 166 0 82 -3 96 -26 133 -14 23 -52 59 -85 81 -32 22 -59
46 -59 53 0 32 34 74 84 102 61 35 75 56 78 125 l3 50 48 -95 c71 -140 95
-283 63 -375 -8 -22 -17 -85 -21 -140 -7 -106 -4 -118 38 -126 17 -4 18 -28
23 -401 3 -263 1 -398 -6 -398 -5 0 -10 4 -10 9 0 5 -34 28 -75 50 -70 39 -78
41 -114 31 -22 -6 -63 -26 -91 -45 -29 -19 -63 -38 -76 -41 -13 -4 -27 -10
-30 -15 -3 -5 -21 -9 -40 -9 -29 0 -37 5 -51 35 -15 30 -15 42 -5 80 16 61 15
106 -3 133 -9 12 -46 43 -82 69 -54 38 -79 49 -137 59 -121 21 -203 58 -271
122 -33 32 -79 74 -102 93 -33 27 -43 43 -43 65 0 45 17 97 45 134 19 26 25
46 25 88 0 47 -4 56 -32 83 -18 16 -36 29 -40 29 -14 0 -9 176 6 211 8 19 35
54 61 79 62 61 67 76 55 172 -10 79 -10 80 -70 141 l-60 62 0 70 c0 50 5 80
19 105 88 159 102 210 80 277 -7 21 -18 43 -25 48 -13 11 -25 88 -26 159 -2
73 33 98 165 122 45 7 93 22 107 32 28 21 51 94 70 222 6 41 17 84 25 96 16
25 99 65 170 83 125 32 167 71 179 165 9 70 25 89 103 120 37 15 82 34 98 42
17 7 64 20 105 29 41 8 86 23 100 33 13 10 40 54 60 98 43 97 84 153 127 170
40 17 212 19 262 2 100 -32 129 -45 164 -76 22 -21 37 -43 37 -57 0 -13 3 -30
6 -39 11 -29 23 -17 22 22 -2 56 -43 102 -130 143 -71 33 -77 34 -213 37 -105
2 -148 -1 -172 -12z m370 -533 c-7 -2 -19 -2 -25 0 -7 3 -2 5 12 5 14 0 19 -2
13 -5z m-63 -7 c0 -2 -23 -9 -51 -15 -28 -6 -76 -23 -106 -37 -31 -14 -63 -24
-72 -22 -9 2 4 13 32 26 64 30 197 62 197 48z m307 -16 c133 -24 255 -68 320
-117 71 -54 163 -141 205 -196 61 -79 154 -239 175 -303 33 -96 39 -255 13
-395 -11 -64 -29 -142 -41 -173 -21 -61 -19 -76 12 -76 18 0 19 -4 13 -37 -10
-55 -12 -56 -47 -27 -17 14 -41 30 -54 35 -19 7 -22 13 -16 39 4 23 1 36 -15
53 -59 63 -59 317 1 415 16 27 19 45 14 95 -8 101 -18 113 -96 123 l-66 9 -3
83 c-3 79 -5 86 -48 152 -32 50 -53 72 -72 76 -15 4 -34 13 -44 21 -11 10 -18
11 -23 4 -10 -17 2 -28 40 -41 26 -9 46 -28 75 -70 39 -57 40 -61 40 -144 0
-76 2 -86 22 -100 12 -9 37 -16 55 -16 51 0 80 -16 92 -51 17 -50 13 -95 -13
-133 -27 -40 -54 -208 -42 -267 4 -19 11 -61 16 -93 6 -33 18 -68 28 -79 9
-11 17 -35 17 -55 0 -28 5 -37 19 -40 34 -7 65 -45 67 -82 2 -59 -41 -165 -94
-228 -19 -23 -41 -58 -47 -77 -6 -19 -15 -35 -20 -35 -5 0 -21 -13 -36 -30
-33 -34 -44 -26 -44 35 0 32 7 48 36 80 44 49 72 109 80 168 8 53 -23 154 -63
214 -25 37 -26 41 -19 148 7 129 1 143 -72 178 l-47 22 0 120 c0 66 4 136 8
156 7 31 5 40 -18 67 -15 18 -36 32 -47 32 -46 0 -96 42 -132 110 -32 61 -36
78 -41 171 -4 57 -8 119 -11 137 -6 41 -76 112 -110 112 -42 0 -64 -18 -64
-51 0 -66 -21 -123 -58 -156 -19 -18 -45 -33 -57 -33 -36 0 -177 -82 -227
-132 l-48 -48 0 -87 c0 -72 -4 -95 -21 -123 -31 -51 -58 -78 -116 -116 -66
-42 -78 -78 -67 -203 l7 -85 -64 -58 -64 -57 1 -63 c1 -35 6 -94 12 -133 6
-42 7 -74 1 -80 -5 -5 -9 -16 -9 -25 0 -8 -11 -37 -24 -64 l-24 -50 -15 35
c-8 20 -26 54 -40 76 -31 50 -59 149 -47 172 4 9 16 33 26 54 11 21 27 45 37
54 9 9 17 21 17 28 0 6 15 34 32 60 30 45 33 56 33 126 0 59 -4 82 -18 96 -9
11 -17 25 -17 31 0 6 -6 17 -12 24 -36 38 -68 89 -68 110 0 18 15 34 65 66 35
24 89 65 120 93 l55 51 0 63 c0 70 6 95 24 96 6 0 31 16 56 34 25 19 63 44 85
56 59 31 84 58 91 96 4 19 13 37 20 40 8 3 14 11 14 19 0 35 -46 -1 -56 -44
-9 -36 -28 -57 -83 -89 -25 -14 -62 -39 -81 -55 -19 -15 -40 -28 -47 -28 -29
0 -43 -32 -43 -100 0 -59 -3 -73 -23 -92 -38 -38 -154 -128 -165 -128 -18 0
-62 -60 -61 -83 0 -12 16 -42 34 -67 97 -128 112 -210 56 -298 -17 -27 -31
-52 -31 -55 0 -3 -14 -27 -32 -53 l-31 -47 -13 44 c-24 86 -27 94 -42 112 -30
34 5 453 44 528 7 15 14 35 14 44 0 8 5 15 10 15 6 0 10 6 10 13 0 13 91 128
157 198 18 19 33 37 33 41 0 13 73 93 104 114 57 39 266 108 391 128 111 19
127 19 252 -4z m19 -75 c37 -40 40 -54 49 -205 5 -99 7 -108 46 -176 42 -74
81 -104 134 -104 36 0 59 -40 50 -87 -4 -21 -9 -86 -12 -146 l-4 -107 -26 30
c-13 16 -31 30 -38 30 -7 0 -25 7 -41 15 l-28 14 25 9 c13 6 33 19 44 31 l19
22 -27 -10 c-108 -41 -176 -103 -177 -161 0 -90 37 -143 110 -155 75 -13 140
45 140 124 l0 29 55 -30 c31 -16 63 -41 72 -54 14 -23 14 -30 -1 -88 -21 -75
-14 -153 14 -176 22 -18 70 -141 70 -180 0 -20 -11 -37 -39 -61 -192 -165
-317 -209 -589 -209 -218 0 -279 11 -369 63 -233 134 -301 189 -262 213 12 7
10 26 -15 139 -8 39 -15 80 -16 91 0 14 26 48 70 92 l70 71 34 -14 c47 -20 79
-19 125 4 50 26 58 37 66 97 6 45 4 54 -19 81 -13 16 -43 38 -65 48 -23 10
-41 21 -41 25 0 4 16 15 35 24 34 16 47 36 24 36 -16 0 -119 -59 -146 -83 -14
-13 -23 -16 -23 -8 0 15 41 55 103 98 24 17 56 53 71 79 22 39 26 59 26 126 0
58 5 88 18 110 15 26 160 128 182 128 4 0 21 6 37 14 130 64 142 77 149 162 8
80 9 84 40 84 18 0 38 -12 60 -35z m-766 -135 c-6 -11 -31 -42 -56 -68 -24
-26 -61 -68 -81 -94 -20 -26 -39 -45 -41 -43 -8 8 63 108 119 168 56 59 78 72
59 37z m1368 -195 c-3 -3 -13 7 -23 22 l-17 28 23 -22 c12 -12 20 -25 17 -28z
m20 -40 c-3 -3 -9 2 -12 12 -6 14 -5 15 5 6 7 -7 10 -15 7 -18z m-1384 -1101
c28 -26 76 -62 106 -82 61 -39 228 -112 257 -112 26 0 43 -19 43 -49 0 -23 -1
-24 -16 -10 -17 17 -34 14 -162 -34 -60 -22 -47 -27 -132 52 -19 18 -48 39
-65 46 -16 7 -48 32 -70 55 -37 38 -40 45 -38 92 2 52 10 88 20 88 3 0 28 -21
57 -46z m1197 -32 c-12 -23 -27 -45 -34 -49 -8 -4 -22 -20 -32 -35 -18 -30
-15 -95 8 -145 15 -34 -3 -50 -34 -30 -29 19 -147 53 -212 62 -72 10 -57 30
53 75 121 48 164 74 219 128 24 23 45 41 48 38 2 -2 -5 -22 -16 -44z m-1187
-172 c7 0 41 -25 75 -56 56 -52 60 -58 44 -70 -10 -7 -25 -14 -34 -14 -24 0
-83 -96 -112 -181 -24 -72 -38 -88 -65 -70 -12 7 -12 28 -1 127 6 66 13 165
13 220 l1 102 33 -29 c18 -16 39 -29 46 -29z m806 -20 c0 -23 -11 -30 -80 -53
-72 -23 -154 -31 -221 -23 -69 9 -76 13 -84 60 -7 37 -7 38 16 31 32 -11 275
-8 319 3 41 10 50 7 50 -18z m202 -61 c82 -27 87 -33 57 -65 -28 -31 -167
-101 -218 -110 -20 -4 -45 -13 -56 -19 -11 -7 -43 -20 -72 -30 -29 -9 -67 -27
-86 -39 -29 -20 -40 -22 -94 -16 -36 5 -82 19 -112 35 -72 39 -238 193 -223
206 4 4 40 19 80 33 l74 26 29 -24 c37 -31 81 -41 189 -41 91 0 173 21 225 56
37 25 111 21 207 -12z m-792 -104 c30 -30 49 -55 43 -55 -6 0 -16 6 -22 14 -7
8 -37 29 -67 47 -44 27 -51 35 -37 41 10 3 20 7 23 7 3 1 30 -24 60 -54z m14
-83 c38 -25 109 -63 159 -84 49 -21 95 -44 102 -51 6 -7 26 -23 43 -36 35 -27
38 -43 25 -173 l-6 -68 -167 0 -167 0 -7 38 c-3 20 -6 50 -6 65 0 39 -24 30
-28 -11 l-3 -32 -83 0 c-46 0 -98 -3 -115 -6 -23 -5 -31 -3 -31 8 0 22 59 38
143 38 45 0 77 4 77 10 0 13 -160 13 -193 1 -14 -6 -27 -8 -29 -5 -5 5 15 112
26 135 4 9 6 20 5 25 -10 37 53 194 98 246 14 16 18 14 51 -18 20 -20 68 -56
106 -82z m1068 -19 c84 -122 149 -263 156 -337 5 -59 5 -59 -19 -52 -52 16
-106 25 -151 26 -37 0 -48 4 -48 16 0 13 7 15 33 10 83 -15 167 -18 167 -7 0
6 -16 11 -36 11 -20 0 -65 5 -100 12 l-63 11 -3 39 c-5 69 -23 41 -26 -42 l-3
-80 -310 0 -309 0 5 113 c9 171 3 160 88 152 133 -12 330 29 480 100 48 23 77
43 80 55 8 31 23 24 59 -27z m-1114 -355 c32 -32 14 -38 -113 -38 -69 0 -125
4 -125 9 0 31 211 56 238 29z m1125 -35 c-13 -2 -35 -2 -50 0 -16 2 -5 4 22 4
28 0 40 -2 28 -4z m131 -19 c12 -5 16 -20 16 -61 0 -51 -2 -54 -22 -51 -20 3
-23 10 -26 61 -3 57 1 63 32 51z m-1461 -66 c-8 -72 -13 -73 -13 -5 0 32 4 57
10 57 5 0 7 -22 3 -52z m1334 36 c30 -4 43 -12 48 -27 11 -33 21 -508 11 -514
-24 -15 -277 -22 -809 -22 l-588 -1 4 223 c5 249 15 323 43 344 16 13 106 14
634 9 338 -3 634 -9 657 -12z m73 -4 c0 -11 -2 -20 -4 -20 -2 0 -6 9 -9 20 -3
11 -1 20 4 20 5 0 9 -9 9 -20z m60 -142 c0 -58 -20 -158 -32 -158 -5 0 -8 47
-8 105 0 98 1 105 20 105 17 0 20 -7 20 -52z m-1246 -451 c110 -2 201 -8 203
-13 3 -10 357 -2 648 15 233 14 352 14 339 1 -12 -12 -173 -28 -371 -38 -210
-11 -1060 1 -1074 15 -17 17 -2 33 29 28 15 -3 117 -6 226 -8z m126 -332 c0
-8 -4 -15 -10 -15 -5 0 -10 7 -10 15 0 8 5 15 10 15 6 0 10 -7 10 -15z m838
-180 c51 -9 114 -24 140 -34 26 -10 96 -28 156 -40 60 -12 112 -24 115 -27 9
-9 -151 7 -170 17 -26 13 -183 29 -291 29 -97 0 -98 0 -98 24 0 42 11 58 34
52 11 -3 63 -13 114 -21z m-843 -16 c4 -11 5 -22 3 -23 -7 -7 -522 -16 -515
-10 3 4 79 13 169 21 90 8 190 18 223 22 105 14 113 13 120 -10z m1434 -72
c-11 -23 -18 -27 -56 -27 -47 0 -56 14 -19 31 13 6 30 22 37 35 12 24 13 24
31 6 16 -16 17 -22 7 -45z m-1434 12 c19 -20 -100 -255 -152 -300 -30 -27
-131 -59 -217 -70 -44 -6 -83 -12 -85 -15 -14 -13 18 -15 99 -6 130 16 211 57
262 132 21 30 50 79 65 107 15 29 32 53 37 53 18 0 -7 -118 -39 -186 -36 -77
-54 -93 -150 -139 -44 -21 -80 -30 -133 -33 -83 -5 -124 8 -151 47 -23 33 -55
151 -44 161 15 14 102 40 158 46 30 4 52 11 49 15 -9 15 -69 10 -136 -11 -34
-11 -69 -20 -75 -20 -14 0 -17 59 -7 123 l7 37 62 0 c58 0 139 25 195 61 14 9
246 7 255 -2z m-334 -12 c-7 -7 -48 -14 -96 -16 -70 -2 -85 0 -85 12 0 11 19
14 97 15 75 1 94 -1 84 -11z m1263 7 c27 -4 46 -12 46 -19 0 -16 23 -25 63
-25 51 0 170 -29 179 -42 4 -7 8 -43 8 -81 l0 -68 -32 17 c-18 10 -60 23 -93
30 l-60 13 57 -2 c67 -2 78 14 17 26 -52 11 -93 2 -85 -18 4 -11 -2 -15 -18
-15 -28 0 -56 -9 -56 -19 0 -3 42 -6 94 -7 88 -1 96 -3 141 -34 l47 -33 -7
-51 c-7 -54 -36 -95 -87 -122 -41 -21 -229 -19 -276 3 -55 26 -123 100 -161
176 -33 66 -34 70 -28 162 3 52 8 99 12 105 7 11 165 14 239 4z m371 -34 c3
-5 -1 -10 -10 -10 -9 0 -13 5 -10 10 3 6 8 10 10 10 2 0 7 -4 10 -10z m107
-187 c27 -17 29 -21 25 -62 -4 -37 -1 -48 22 -74 33 -36 43 -32 61 23 7 22 19
45 27 51 10 9 13 5 13 -23 0 -48 37 -82 79 -73 29 6 33 4 45 -27 7 -18 16 -45
20 -60 l6 -28 -58 0 c-50 0 -63 4 -92 30 -41 35 -82 39 -101 9 -15 -21 -15
-21 -136 6 -16 4 -23 15 -28 45 -5 28 -12 40 -24 40 -14 0 -17 10 -16 60 0 33
2 60 4 60 3 0 12 -7 22 -16 10 -9 32 -23 49 -33 37 -19 40 -36 8 -36 -31 -1
-34 -23 -4 -35 34 -13 52 -4 71 32 18 37 8 53 -36 63 -26 6 -49 35 -49 61 0
11 65 2 92 -13z m228 -53 c25 -49 25 -50 -5 -50 -23 0 -25 4 -25 45 0 25 2 45
5 45 2 0 14 -18 25 -40z"/>
<path d="M2233 3268 c-32 -16 -47 -61 -37 -109 13 -59 30 -48 26 16 -4 55 -3
55 30 70 44 18 74 10 114 -27 45 -42 55 -17 11 27 -30 30 -42 35 -78 34 -24 0
-54 -5 -66 -11z"/>
<path d="M2140 3034 c0 -20 47 -64 94 -88 50 -26 63 -28 143 -24 82 3 92 6
147 41 79 52 62 71 -19 22 -52 -31 -67 -35 -128 -35 -90 0 -137 15 -183 56
-34 32 -54 42 -54 28z"/>
<path d="M2182 1618 l3 -93 290 0 290 0 3 93 3 92 -296 0 -296 0 3 -92z"/>
<path d="M1644 555 c-2 -20 3 -25 23 -25 18 0 24 4 19 15 -4 10 1 15 14 15 11
0 20 5 20 10 0 6 -17 10 -37 10 -33 0 -38 -3 -39 -25z"/>
<path d="M1630 510 c0 -5 16 -10 36 -10 21 0 33 4 29 10 -3 6 -19 10 -36 10
-16 0 -29 -4 -29 -10z"/>
<path d="M2833 627 c13 -84 100 -204 209 -291 l58 -46 95 0 c69 0 95 3 95 13
0 9 -23 11 -89 9 -64 -2 -92 0 -102 10 -8 7 -34 28 -59 46 -84 60 -190 212
-190 272 0 11 -5 20 -11 20 -8 0 -10 -12 -6 -33z"/>
<path d="M3179 593 c-1 -5 -1 -11 0 -15 0 -5 -6 -8 -14 -8 -8 0 -15 -4 -15 -9
0 -9 100 -21 110 -14 2 2 -9 15 -24 28 -29 24 -55 32 -57 18z"/>
<path d="M2785 4795 c-5 -1 -46 -11 -90 -21 -44 -10 -91 -26 -104 -36 -12 -10
-39 -20 -60 -24 -20 -4 -61 -15 -91 -26 -30 -11 -61 -22 -69 -24 -10 -3 -11
-8 -4 -15 11 -11 120 19 222 60 86 35 186 62 240 64 l54 2 17 -55 c9 -30 26
-71 37 -90 11 -19 29 -56 38 -82 l18 -48 41 7 c22 3 51 10 64 14 37 14 206 11
226 -4 10 -7 30 -49 44 -93 l27 -79 55 -5 c45 -4 64 -12 102 -43 l46 -38 4
-111 c3 -102 5 -112 26 -126 12 -8 22 -20 22 -26 0 -18 67 -85 95 -96 17 -6
33 -26 47 -57 19 -43 19 -48 4 -74 -23 -39 -29 -105 -14 -169 11 -43 19 -58
41 -68 15 -7 27 -17 27 -21 0 -8 81 -50 193 -100 74 -33 74 -33 58 -135 -6
-36 -16 -57 -36 -74 -33 -28 -44 -74 -45 -189 0 -76 3 -88 37 -154 23 -45 45
-74 60 -80 13 -5 26 -16 29 -24 8 -20 -14 -101 -32 -116 -25 -21 -26 -68 -3
-154 23 -89 36 -105 94 -119 48 -12 71 -32 104 -89 24 -43 31 -66 31 -109 0
-52 -27 -129 -50 -143 -5 -3 -10 -15 -10 -25 0 -12 -17 -29 -47 -47 -27 -15
-50 -31 -51 -35 -2 -4 -21 -11 -43 -14 -50 -8 -54 -23 -45 -167 6 -104 5 -114
-21 -180 -29 -74 -45 -87 -108 -87 -21 0 -51 11 -78 30 -28 19 -58 30 -78 30
-65 0 -158 -30 -231 -72 -126 -74 -138 -77 -138 -30 0 16 -14 38 -41 63 -40
37 -41 39 -34 88 4 27 13 55 21 62 22 18 18 105 -6 129 -21 21 -107 30 -95 10
3 -6 19 -10 35 -10 19 0 33 -7 40 -19 13 -25 13 -84 0 -97 -16 -16 -30 -112
-20 -139 5 -13 23 -31 40 -40 24 -12 30 -22 30 -48 0 -36 15 -57 40 -57 17 0
102 41 170 82 38 23 134 47 188 48 18 0 50 -11 72 -25 28 -18 53 -25 87 -25
83 1 101 15 133 103 28 74 29 83 23 202 -6 118 -5 125 13 125 21 0 109 44 137
68 16 15 27 32 68 114 23 45 26 153 5 203 -25 58 -92 123 -136 130 -47 8 -52
14 -73 92 -21 77 -21 97 -2 127 26 39 47 134 35 157 -6 10 -15 19 -20 19 -18
0 -57 46 -69 82 -7 20 -19 42 -27 48 -10 9 -14 34 -14 89 1 101 11 139 48 179
33 35 45 76 46 155 1 47 0 49 -43 73 -24 14 -65 33 -93 44 -88 33 -175 91
-187 126 -19 52 -14 130 12 174 l22 40 -25 47 c-15 27 -43 60 -69 78 -24 16
-63 59 -87 94 l-44 63 0 92 0 92 -37 36 c-50 47 -73 58 -126 58 l-45 0 -18 73
c-12 47 -27 80 -44 95 -24 23 -29 24 -150 19 -69 -3 -139 -9 -156 -12 -30 -7
-31 -6 -71 77 -22 46 -46 102 -53 123 -7 22 -17 46 -23 53 -8 11 -84 16 -112
7z"/>
<path d="M2718 4503 c-21 -14 -38 -30 -38 -34 0 -16 25 -9 62 16 29 20 49 25
97 25 53 0 66 -4 122 -42 69 -47 76 -60 78 -149 1 -39 7 -63 19 -77 14 -17
175 -92 196 -92 4 0 27 -17 52 -37 45 -38 54 -62 30 -82 -44 -37 -64 -202 -31
-256 29 -47 103 -113 135 -120 29 -6 87 -62 110 -106 9 -17 11 -83 6 -263 -7
-229 -6 -243 13 -272 11 -19 34 -37 54 -43 27 -9 38 -21 51 -54 24 -63 20 -84
-23 -136 -57 -68 -81 -112 -81 -148 0 -28 7 -37 53 -67 54 -36 92 -74 137
-136 19 -27 25 -51 28 -103 4 -60 1 -72 -22 -105 -32 -47 -33 -74 -3 -113 21
-29 22 -40 22 -206 l0 -176 24 -9 c27 -10 51 -4 51 12 0 5 -10 10 -23 10 l-23
0 0 168 c1 157 0 169 -21 202 -29 44 -29 70 -1 105 15 20 23 46 26 87 4 49 0
67 -23 113 -32 62 -127 161 -174 181 -17 7 -31 20 -31 28 0 35 48 112 109 173
19 20 22 32 18 61 -9 68 -33 109 -76 131 -22 12 -46 31 -53 44 -13 24 -14 131
-3 345 4 73 4 143 1 155 -10 43 -76 115 -124 137 -85 40 -151 123 -152 191 0
37 30 129 52 158 27 36 22 54 -29 103 -35 31 -75 55 -143 82 -52 20 -103 46
-112 58 -12 14 -18 39 -19 77 -2 87 -9 101 -77 148 -62 42 -65 43 -145 42 -71
0 -87 -4 -119 -26z"/>
<path d="M3510 3890 c0 -6 12 -15 27 -21 69 -26 102 -90 103 -197 0 -90 13
-120 85 -202 l57 -65 -6 -110 c-4 -60 -9 -140 -12 -177 -8 -96 20 -186 91
-294 61 -92 61 -92 39 -218 -5 -29 -1 -50 16 -87 13 -27 27 -49 30 -49 4 0 31
-35 59 -78 45 -69 51 -84 51 -131 0 -29 -5 -62 -12 -74 -39 -70 -53 -192 -23
-203 11 -4 15 -21 15 -55 0 -27 5 -49 10 -49 6 0 10 28 10 65 0 42 -4 65 -11
65 -20 0 -4 124 20 163 15 24 21 50 21 88 -1 46 -7 64 -43 120 -23 36 -59 88
-80 115 -45 60 -53 87 -38 129 6 17 11 56 10 86 0 46 -6 61 -35 99 -18 25 -49
74 -66 110 -31 62 -33 70 -31 170 1 58 4 148 8 201 8 108 -1 136 -60 199 -72
76 -85 106 -85 192 0 85 -16 137 -53 173 -39 39 -97 60 -97 35z"/>
<path d="M1220 3415 c0 -52 -60 -116 -197 -211 -53 -37 -53 -37 -53 -91 0 -51
2 -55 39 -81 22 -15 46 -42 55 -60 20 -41 21 -131 2 -158 -23 -33 -56 -140
-56 -183 0 -31 8 -49 38 -84 104 -124 112 -138 112 -186 0 -43 -4 -51 -47 -93
-27 -25 -64 -55 -83 -65 -26 -15 -40 -33 -57 -78 -32 -81 -30 -151 3 -189 19
-21 28 -26 37 -17 8 8 4 18 -16 39 -19 20 -27 39 -27 64 0 51 45 146 74 158
13 5 51 35 85 68 56 55 61 63 61 103 0 55 -11 76 -88 171 -58 71 -62 80 -62
126 0 37 9 69 36 124 30 62 35 80 31 123 -6 60 -34 135 -51 135 -26 0 -56 46
-56 86 0 36 4 42 49 72 27 19 62 47 77 64 16 16 39 34 52 39 12 5 27 20 32 33
5 13 14 27 19 31 14 8 14 85 1 85 -5 0 -10 -11 -10 -25z"/>
<path d="M2340 490 c-6 -11 -17 -20 -25 -20 -20 0 -19 -19 1 -27 14 -5 64 31
64 48 0 17 -31 17 -40 -1z"/>
<path d="M2255 460 c-8 -13 4 -32 16 -25 12 8 12 35 0 35 -6 0 -13 -4 -16 -10z"/>
</g>
</svg>
