<?xml version="1.0" standalone="no"?>
<!DOCTYPE svg PUBLIC "-//W3C//DTD SVG 20010904//EN"
 "http://www.w3.org/TR/2001/REC-SVG-20010904/DTD/svg10.dtd">
<svg version="1.0" xmlns="http://www.w3.org/2000/svg"
 width="500.000000pt" height="500.000000pt" viewBox="0 0 500.000000 500.000000"
 preserveAspectRatio="xMidYMid meet">

<g transform="translate(0.000000,500.000000) scale(0.100000,-0.100000)"
fill="#000000" stroke="none">
<path d="M2190 4864 c-977 -125 -1786 -858 -2014 -1824 -43 -182 -56 -302 -56
-523 0 -406 71 -725 236 -1057 129 -258 263 -447 459 -645 190 -192 385 -330
640 -456 250 -123 508 -198 784 -230 152 -17 504 -7 656 20 505 87 959 328
1315 698 378 392 606 880 661 1412 15 143 6 456 -16 601 -76 489 -297 933
-645 1293 -390 406 -886 651 -1450 717 -117 14 -443 11 -570 -6z m650 -39
c941 -145 1700 -831 1934 -1750 65 -251 90 -632 57 -865 -84 -613 -375 -1135
-855 -1535 -171 -143 -471 -311 -691 -389 -267 -93 -489 -130 -785 -130 -305
0 -556 43 -816 140 -363 135 -733 394 -975 682 -229 274 -398 599 -484 936
-46 182 -65 312 -72 516 -35 996 564 1895 1509 2264 180 71 418 125 653 150
84 9 424 -4 525 -19z"/>
<path d="M2890 3690 l0 -30 -163 0 c-144 0 -166 -2 -179 -17 -9 -10 -111 -146
-228 -303 -116 -157 -217 -284 -223 -283 -7 1 -50 18 -97 37 -110 46 -232 61
-369 46 -91 -10 -139 -18 -188 -34 -19 -6 -46 25 -233 274 l-212 280 -144 0
-144 0 2 -1097 3 -1098 123 -3 122 -3 0 248 1 248 29 -64 c72 -155 206 -294
354 -366 120 -59 187 -76 331 -82 l120 -5 -80 83 c-45 46 -95 102 -112 124
-22 29 -48 46 -90 63 -161 62 -295 223 -339 408 -22 91 -22 268 0 354 23 92
79 201 134 261 l47 51 214 -272 c172 -217 217 -268 227 -258 6 7 93 118 192
246 l181 232 24 -32 c40 -54 77 -135 98 -216 24 -95 26 -263 3 -365 -58 -260
-271 -447 -509 -447 -25 0 -45 -4 -45 -9 0 -10 152 -155 186 -178 20 -12 28
-11 82 11 88 35 164 89 232 163 l59 65 3 -128 3 -129 120 0 120 0 3 828 2 827
-36 0 c-20 0 -34 4 -32 9 6 17 103 140 111 141 4 0 7 -407 7 -905 l0 -906 128
3 127 3 3 418 c2 409 3 417 22 417 20 0 20 -7 20 -420 l0 -421 123 3 122 3 3
418 2 417 237 -2 237 -3 107 -168 c58 -93 111 -173 117 -179 11 -11 57 100 88
210 l17 61 -41 63 c-23 34 -38 65 -34 69 4 3 28 12 55 19 l47 13 0 124 c0 69
-3 123 -7 121 -150 -77 -170 -80 -515 -85 l-308 -5 0 291 0 291 -125 0 -125 0
0 -290 c0 -283 0 -290 -20 -290 -20 0 -20 7 -20 440 0 384 2 440 15 440 8 0
15 -4 15 -10 0 -6 52 -10 135 -10 83 0 135 4 135 10 0 6 79 10 218 10 l217 1
-30 25 c-148 127 -297 214 -365 214 -38 0 -40 2 -40 30 l0 30 -135 0 -135 0 0
-30z m-1796 -579 l106 -134 -53 -56 c-64 -68 -110 -134 -154 -221 l-32 -65 -1
320 c0 277 2 317 14 305 8 -8 62 -75 120 -149z m796 -207 c39 -8 72 -20 76
-25 4 -7 -171 -259 -181 -259 -11 0 -205 274 -198 280 23 23 210 25 303 4z
m410 -30 c0 -8 -5 -12 -10 -9 -6 4 -8 11 -5 16 9 14 15 11 15 -7z"/>
<path d="M3490 3656 c0 -2 26 -23 58 -47 31 -24 93 -78 137 -120 71 -67 88
-79 150 -97 82 -25 143 -62 203 -123 113 -116 144 -336 69 -492 -24 -48 -25
-58 -17 -132 5 -44 9 -108 9 -142 1 -35 5 -63 10 -63 23 0 136 96 175 150 79
107 108 211 109 385 1 188 -49 335 -152 447 -154 168 -342 238 -642 238 -60 0
-109 -2 -109 -4z"/>
<path d="M4015 2028 c-10 -29 -35 -87 -56 -129 l-37 -75 115 -182 115 -182
145 0 c80 0 143 4 141 9 -7 18 -393 610 -399 611 -3 0 -13 -24 -24 -52z"/>
</g>
</svg>
