<?xml version="1.0" standalone="no"?>
<!DOCTYPE svg PUBLIC "-//W3C//DTD SVG 20010904//EN"
 "http://www.w3.org/TR/2001/REC-SVG-20010904/DTD/svg10.dtd">
<svg version="1.0" xmlns="http://www.w3.org/2000/svg"
 width="500.000000pt" height="500.000000pt" viewBox="0 0 500.000000 500.000000"
 preserveAspectRatio="xMidYMid meet">

<g transform="translate(0.000000,500.000000) scale(0.100000,-0.100000)"
fill="#000000" stroke="none">
<path d="M3108 3953 l-3 -38 -187 -3 -188 -2 0 -1335 0 -1335 150 0 150 0 0
510 0 510 45 0 45 0 0 -510 0 -510 150 0 150 0 0 510 0 510 273 0 272 0 320
-510 320 -509 178 -1 c97 0 177 3 177 6 0 3 -155 244 -345 536 -190 292 -344
532 -342 535 2 2 37 13 78 24 41 11 121 42 177 70 86 42 117 63 181 127 104
103 157 207 190 370 14 68 14 248 0 332 -56 347 -309 589 -683 655 -69 12
-167 15 -437 15 l-349 0 0 40 0 40 -159 0 -160 0 -3 -37z m2 -343 c0 -6 60
-10 160 -10 107 0 160 4 160 11 0 7 110 9 363 7 397 -4 398 -5 537 -72 82 -39
187 -141 223 -216 53 -110 69 -255 43 -382 -26 -119 -90 -213 -193 -281 -151
-99 -255 -117 -675 -117 l-308 0 0 355 0 355 -150 0 -150 0 0 -355 0 -355 -45
0 -45 0 0 535 0 535 40 0 c22 0 40 -4 40 -10z"/>
<path d="M40 2575 l0 -1335 150 0 150 0 0 268 0 267 33 -60 c56 -103 97 -157
191 -250 140 -137 296 -216 489 -246 106 -17 333 -6 432 20 164 43 309 134
415 262 l50 60 0 -160 0 -161 150 0 150 0 0 1009 0 1010 -30 3 -30 3 66 85
c36 47 70 87 75 88 5 2 9 -428 9 -1097 l0 -1101 150 0 150 0 0 1335 0 1335
-178 0 -177 0 -274 -370 c-151 -204 -277 -373 -282 -375 -4 -3 -42 13 -85 35
-132 66 -223 85 -404 84 -113 0 -175 -6 -230 -19 -41 -10 -85 -18 -97 -19 -17
-1 -72 67 -270 329 l-248 330 -177 3 -178 2 0 -1335z m580 516 c0 -5 -11 -16
-25 -25 -41 -27 -147 -158 -202 -251 l-53 -89 0 364 0 363 140 -177 c77 -97
140 -180 140 -185z m875 -112 c39 -13 70 -28 70 -33 -1 -12 -208 -295 -217
-296 -8 0 -246 312 -254 334 -8 20 28 24 191 22 118 -2 151 -6 210 -27z m-415
-464 c145 -184 266 -332 269 -330 4 2 106 132 226 289 121 157 223 285 227
285 13 1 65 -89 97 -164 49 -117 64 -216 58 -384 -6 -171 -19 -230 -83 -360
-65 -132 -172 -241 -294 -299 -119 -56 -173 -67 -325 -66 -112 1 -141 5 -210
27 -214 70 -378 233 -449 447 -50 150 -58 353 -20 509 26 108 96 241 165 316
34 36 65 65 68 65 4 0 126 -151 271 -335z"/>
</g>
</svg>
